<svg width="128" height="128" viewBox="0 0 128 128" fill="none" xmlns="http://www.w3.org/2000/svg">
<path d="M115.271 112.023V104.431C121.744 101.548 126.271 95.0575 126.271 87.5257V69.5095C126.271 59.3085 117.972 51.0095 107.771 51.0095C97.5697 51.0095 89.2707 59.3085 89.2707 69.5095V78.6762C82.5545 74.4097 74.9492 71.982 66.9365 71.5648V67.475C73.683 63.522 78.224 56.1955 78.224 47.8275V41.1175C78.162 41.2192 78.2985 41.027 78.224 41.1175C80.7803 36.9215 82.3377 31.8062 82.3377 26.8692V2.5C82.3377 1.1195 81.2185 0 79.8377 0H50.7992C38.5578 0 28.5987 9.95925 28.5987 22.2008V26.8695C28.5987 31.8065 30.1562 36.9215 32.7125 41.1177C32.638 41.0272 32.7745 41.2195 32.7125 41.1177V47.8278C32.7125 56.1958 37.2535 63.522 44 67.4753V71.567C41.2747 71.7132 38.5765 72.1003 35.9357 72.7148C35.9178 72.7193 35.8993 72.722 35.8812 72.7268C31.314 73.795 26.92 75.5488 22.8635 77.9475C21.675 78.6503 21.2812 80.1833 21.984 81.3717C22.4505 82.161 23.2833 82.5997 24.1383 82.5997C24.5708 82.5997 25.009 82.4873 25.4085 82.251C28.2533 80.5687 31.285 79.2443 34.4315 78.2903C36.4292 88.1348 45.1485 95.4717 55.4683 95.4717C65.786 95.4717 74.5165 88.121 76.5078 78.2687C81.0695 79.6492 85.3685 81.8255 89.2707 84.7493V87.5257C89.2707 95.0575 93.7972 101.548 100.271 104.431V112.023C95.4877 112.294 91.3627 115.065 89.1865 119.048V106.5C89.1865 105.119 88.0673 104 86.6865 104C85.3057 104 84.1865 105.119 84.1865 106.5V123H26.75V106.5C26.75 105.119 25.6307 104 24.25 104C22.8692 104 21.75 105.119 21.75 106.5V123H5V118C5 110.664 6.93875 103.456 10.6065 97.155C11.301 95.962 10.8967 94.4313 9.7035 93.7367C8.51 93.0425 6.9795 93.4462 6.28525 94.6397C2.1735 101.704 0 109.782 0 118V125.5C0 126.88 1.11925 128 2.5 128H125.5C126.881 128 128 126.88 128 125.5C128 118.315 122.357 112.424 115.271 112.023ZM33.5988 22.2008C33.5988 12.7163 41.315 5 50.7992 5H77.3377V26.8695C77.3377 29.3452 76.9208 31.787 76.1145 34.0942C75.09 32.0887 74.1752 30.0273 73.3792 27.9298C73.004 26.9405 71.7582 26.3533 70.741 26.3533C70.5415 26.3533 70.9425 26.3033 70.741 26.3533C65.8737 27.5625 60.535 28.2127 55.4683 28.2127C50.4022 28.2127 45.3652 27.5995 40.4972 26.39C39.2695 26.0855 38.006 26.7463 37.557 27.9295C36.7612 30.0268 35.8463 32.0883 34.8218 34.094C34.0155 31.7868 33.5985 29.345 33.5985 26.8692L33.5988 22.2008ZM37.7125 47.8278V39.2445C39.1035 36.8217 40.347 34.309 41.4225 31.7347C46.0167 32.7162 50.7318 33.213 55.4683 33.213C60.2055 33.213 64.9202 32.7165 69.5143 31.735C70.5898 34.3095 71.8332 36.822 73.224 39.2445V47.8278C73.224 57.6183 65.2588 65.5833 55.4683 65.5833C45.6777 65.5833 37.7125 57.6183 37.7125 47.8278ZM55.4683 70.5833C57.7145 70.5833 59.8852 70.2545 61.9365 69.6452V74L61.9367 74.0027C61.9367 77.5695 59.035 80.4715 55.4683 80.4715C51.9015 80.4715 49 77.5697 49 74.0033V74V69.6452C51.0512 70.2545 53.222 70.5833 55.4683 70.5833ZM55.4683 90.4717C47.495 90.4717 40.7695 84.7627 39.301 77.1305C40.9473 76.8415 42.6138 76.6533 44.2917 76.5642C45.4587 81.6585 50.025 85.4717 55.4683 85.4717C60.9132 85.4717 65.4808 81.656 66.646 76.5592C68.332 76.6462 69.9977 76.8323 71.6377 77.1165C70.1732 84.7533 63.439 90.4717 55.4683 90.4717ZM94.2707 77.6855H121.271V82.6855H94.2707V77.6855ZM107.771 56.0095C115.215 56.0095 121.271 62.0657 121.271 69.5095V72.6855H94.2707V69.5095C94.2707 62.0657 100.327 56.0095 107.771 56.0095ZM94.275 87.6855H121.267C121.181 95.0557 115.162 101.026 107.771 101.026C100.381 101.026 94.3612 95.0557 94.275 87.6855ZM110.271 106.026V112H105.271V106.026H110.271ZM92.9167 123C93.9867 119.529 97.2243 117 101.042 117H114.5C118.317 117 121.555 119.529 122.625 123H92.9167Z" fill="#1AD993"/>
</svg>
