<svg width="138" height="128" viewBox="0 0 138 128" fill="none" xmlns="http://www.w3.org/2000/svg">
<path d="M59.1083 55.2147L59.1082 55.2147C58.1679 54.6737 57.5903 53.6748 57.5903 52.5959V27.2481C57.5903 26.169 58.1679 25.1703 59.1084 24.629C60.0491 24.0875 61.2084 24.0875 62.1491 24.629L62.1492 24.629L84.1734 37.3029L84.1734 37.303C85.1137 37.844 85.6913 38.8428 85.6913 39.922C85.6913 41.0011 85.1138 41.9998 84.1733 42.5411L62.1492 55.2147L62.149 55.2148C61.679 55.4854 61.154 55.6208 60.6287 55.6208C60.1034 55.6208 59.5788 55.4855 59.1083 55.2147ZM65.1659 33.3527L63.6672 32.4902V34.2194V45.6238V47.353L65.1659 46.4905L75.0748 40.7885L76.581 39.9218L75.0749 39.055L65.1659 33.3527Z" fill="#ABFFE0" stroke="#503AE7" stroke-width="2"/>
<path d="M128.629 95.2154L127.758 96.0652L128.76 96.7552C133.643 100.115 136.845 105.723 136.845 112.061V123.975C136.845 125.642 135.487 127 133.806 127C132.125 127 130.768 125.642 130.768 123.975V112.061C130.768 105.143 125.123 99.5217 118.191 99.5217C111.258 99.5217 105.614 105.143 105.614 112.061V123.975C105.614 125.642 104.257 127 102.576 127C100.895 127 99.5373 125.642 99.5373 123.975V112.061C99.5373 105.723 102.739 100.115 107.621 96.7555L108.624 96.0655L107.753 95.2157C105.134 92.6625 103.453 89.1668 103.271 85.2872L103.226 84.3342H102.272H84.8285H83.8744L83.8296 85.2873C83.6474 89.1668 81.9665 92.6625 79.3478 95.2157L78.4762 96.0655L79.4791 96.7555C84.3619 100.115 87.5635 105.723 87.5635 112.061V123.975C87.5635 125.642 86.2062 127 84.5251 127C82.844 127 81.4867 125.642 81.4867 123.975V112.061C81.4867 105.143 75.8425 99.5217 68.9099 99.5217C61.9773 99.5217 56.3331 105.143 56.3331 112.061V123.975C56.3331 125.642 54.9758 127 53.2947 127C51.6136 127 50.2563 125.642 50.2563 123.975V112.061C50.2563 105.723 53.4579 100.115 58.3407 96.7555L59.3436 96.0655L58.4719 95.2157C55.8533 92.6628 54.1727 89.1669 53.9902 85.2872L53.9453 84.3342H52.9913H35.5725H34.6184L34.5736 85.2872C34.3911 89.1668 32.7105 92.6625 30.0918 95.2157L29.2203 96.0655L30.2231 96.7555C35.1056 100.115 38.3072 105.723 38.3072 112.061V123.975C38.3072 125.642 36.9499 127 35.2688 127C33.5877 127 32.2304 125.642 32.2304 123.975V112.061C32.2304 105.143 26.5862 99.5217 19.6536 99.5217C12.721 99.5217 7.07683 105.143 7.07683 112.061V123.975C7.07683 125.642 5.71951 127 4.03841 127C2.35732 127 1 125.642 1 123.975V112.061C1 105.723 4.2016 100.115 9.08436 96.7556L10.0873 96.0655L9.21564 95.2157C6.43944 92.509 4.71588 88.7429 4.71588 84.5821C4.71588 78.2432 8.71712 72.8128 14.3431 70.6721L14.9875 70.4269V69.7375V4.02517C14.9875 2.35758 16.3448 1 18.0259 1H119.794C121.475 1 122.832 2.35758 122.832 4.02517V69.7275V70.4183L123.478 70.6628C129.117 72.7971 133.129 78.2341 133.129 84.5818C133.129 88.7426 131.405 92.5087 128.629 95.2154ZM116.755 8.05035V7.05035H115.755H22.0646H21.0646V8.05035V68.878V69.7376L21.9144 69.8666C26.7057 70.5943 30.7569 73.6041 32.9161 77.7459L33.1965 78.2836H33.8029H54.7609H55.3673L55.6476 77.7459C58.1391 72.9668 63.1486 69.6963 68.9099 69.6963C74.6712 69.6963 79.6807 72.9668 82.1721 77.7459L82.4525 78.2836H83.0589H104.042H104.648L104.929 77.7459C107.085 73.6106 111.126 70.6041 115.907 69.8701L116.755 69.7399V68.8817V8.05035ZM109.33 84.5818C109.33 89.4575 113.307 93.4172 118.191 93.4172C123.075 93.4172 127.052 89.4578 127.052 84.5818C127.052 79.7063 123.075 75.7467 118.191 75.7467C113.307 75.7467 109.33 79.706 109.33 84.5818ZM68.9099 93.4172C73.7936 93.4172 77.7711 89.4578 77.7711 84.5818C77.7711 79.7063 73.7936 75.7467 68.9099 75.7467C64.0262 75.7467 60.0487 79.706 60.0487 84.5818C60.0487 89.4575 64.0261 93.4172 68.9099 93.4172ZM28.5145 84.5818C28.5145 79.7063 24.5374 75.7467 19.6536 75.7467C14.7698 75.7467 10.7927 79.7063 10.7927 84.5818C10.7927 89.4578 14.7698 93.4172 19.6536 93.4172C24.5374 93.4172 28.5145 89.4578 28.5145 84.5818Z" fill="#1AD993" stroke="#503AE7" stroke-width="2"/>
</svg>
