<svg width="109" height="128" viewBox="0 0 109 128" fill="none" xmlns="http://www.w3.org/2000/svg">
<path d="M54.36 81.0664H51.0947C51.0367 81.0664 50.9895 81.0195 50.9895 80.9615V75.999C50.9895 74.9642 50.1505 74.1252 49.1157 74.1252C48.0809 74.1252 47.2419 74.9642 47.2419 75.999V80.9615C47.2419 83.0859 48.9703 84.814 51.0947 84.814H54.36C56.8544 84.814 58.8838 86.8434 58.8838 89.3377V106.365C58.8838 106.862 58.7277 107.337 58.4321 107.737L51.1516 117.596C50.9135 117.918 50.7851 118.308 50.7851 118.709V126.126C50.7851 127.161 51.6241 128 52.6589 128C53.6937 128 54.5327 127.161 54.5327 126.126V119.326L61.4466 109.963C62.2216 108.914 62.6311 107.669 62.6311 106.365V89.3377C62.6313 84.7772 58.9208 81.0664 54.36 81.0664Z" fill="#1AD993"/>
<path d="M47.242 68.0133C47.242 69.0481 48.0809 69.8871 49.1157 69.8871C50.1506 69.8871 50.9895 69.0481 50.9895 68.0133V49.9347C50.9895 45.6452 47.4998 42.1555 43.2106 42.1555C38.9214 42.1555 35.4317 45.6452 35.4317 49.9347V66.85C34.5026 66.3771 33.4528 66.1085 32.3407 66.1085H30.4595C28.2469 66.1085 26.2775 67.1656 25.0268 68.8005C23.8236 67.748 22.2509 67.1079 20.5305 67.1079H18.6492C16.2288 67.1079 14.0995 68.373 12.884 70.2758C11.7298 69.3869 10.2862 68.8567 8.72026 68.8567H6.839C3.06822 68.8567 0.000488281 71.9245 0.000488281 75.695V91.8396C0.000488281 92.8745 0.839437 93.7134 1.87426 93.7134C2.90908 93.7134 3.74803 92.8745 3.74803 91.8396V75.695C3.74803 73.9909 5.13462 72.6043 6.839 72.6043H8.72026C10.4246 72.6043 11.8112 73.9909 11.8112 75.695V76.1832C11.8112 77.218 12.6502 78.0569 13.685 78.0569C14.7198 78.0569 15.5588 77.218 15.5588 76.1832V73.9461C15.5588 72.242 16.9454 70.8554 18.6495 70.8554H20.5308C22.2351 70.8554 23.6217 72.242 23.6217 73.9461V76.1832C23.6217 77.218 24.4607 78.0569 25.4955 78.0569C26.5303 78.0569 27.3693 77.218 27.3693 76.1832V73.9461C27.3693 73.7238 27.3578 73.5042 27.3368 73.2871C27.357 73.1766 27.3693 73.0632 27.3693 72.9468C27.3693 71.2427 28.7559 69.8561 30.46 69.8561H32.3412C34.0454 69.8561 35.432 71.2427 35.432 72.9468V72.9493V76.1832C35.432 77.218 36.2709 78.0569 37.3057 78.0569C38.3406 78.0569 39.1795 77.218 39.1795 76.1832V49.9347C39.1795 47.7116 40.9881 45.9031 43.2109 45.9031C45.4337 45.9031 47.2422 47.7116 47.2422 49.9347V68.0133H47.242Z" fill="#1AD993"/>
<path d="M4.86131 110.352C4.14303 109.436 3.74754 108.291 3.74754 107.128V99.8252C3.74754 98.7904 2.90859 97.9514 1.87377 97.9514C0.838949 97.9514 0 98.7904 0 99.8252V107.128C0 109.126 0.679304 111.093 1.91249 112.665L4.68267 116.196V126.126C4.68267 127.161 5.52162 128 6.55644 128C7.59126 128 8.43021 127.161 8.43021 126.126V115.549C8.43021 115.13 8.28955 114.723 8.03072 114.393L4.86131 110.352Z" fill="#1AD993"/>
<path d="M88.4596 21.9133L78.7028 18.6094L72.8144 12.7206C72.0826 11.9888 70.8962 11.9885 70.1646 12.7206C69.4326 13.4523 69.4326 14.6385 70.1644 15.3703L75.0374 20.2436L64.8009 30.4801C64.0691 31.2119 64.0691 32.3984 64.8009 33.1299C65.1669 33.4957 65.6466 33.6788 66.126 33.6788C66.6055 33.6788 67.0852 33.4959 67.4512 33.1299L78.1894 22.3917L87.2579 25.4624C87.8645 25.6678 88.0429 26.1732 88.0914 26.3808C88.1398 26.5884 88.2038 27.1206 87.7511 27.5735L57.6364 57.6888C57.3131 58.0121 56.9451 58.067 56.6897 58.057C55.6622 58.0106 54.7825 58.8163 54.7388 59.8504C54.695 60.8842 55.498 61.7579 56.5321 61.8013C56.6055 61.8046 56.6787 61.8061 56.7517 61.8061C58.0876 61.8061 59.3355 61.2899 60.2864 60.339L69.0051 51.62C70.6153 53.0486 72.665 53.8308 74.8358 53.8308C77.1863 53.8308 79.3961 52.9154 81.0577 51.2537L81.3151 50.9967C84.6184 47.6931 84.7396 42.3953 81.6816 38.9436L90.4006 30.2246C91.637 28.9879 92.1379 27.2325 91.74 25.5296C91.3425 23.826 90.116 22.4744 88.4596 21.9133ZM78.6655 48.3459L78.4082 48.603C77.4541 49.5574 76.1854 50.0828 74.8358 50.0828C73.6911 50.0828 72.6043 49.7045 71.7186 49.0075L79.0693 41.6568C80.6245 43.638 80.4896 46.5219 78.6655 48.3459Z" fill="#1AD993"/>
<path d="M34.3048 13.8235C30.3724 21.7648 31.7023 31.671 38.3057 38.2744L38.3619 38.3309C38.7279 38.6977 39.2081 38.8813 39.6883 38.8813C40.1672 38.8813 40.6459 38.6989 41.0117 38.3339C41.7442 37.6029 41.7457 36.4167 41.0146 35.6841L40.9569 35.6264C34.1384 28.8079 34.1384 17.7137 40.9569 10.8952C44.0739 7.77798 48.2144 5.96492 52.6155 5.78954C56.9909 5.61515 61.2391 7.0677 64.5744 9.87935C65.3657 10.5464 66.5476 10.446 67.2147 9.65425C67.8818 8.86302 67.7811 7.68105 66.9898 7.01399C62.9373 3.59798 57.7766 1.83339 52.4664 2.045C49.4471 2.16517 46.5295 2.92067 43.8795 4.23681L41.6238 1.98104C38.9822 -0.660472 34.6843 -0.660222 32.0428 1.98104C30.7631 3.2607 30.0586 4.96208 30.0586 6.77164C30.0586 8.58121 30.7631 10.2826 32.0428 11.562L34.3048 13.8235ZM34.6931 4.6308C35.8733 3.45058 37.794 3.45058 38.9742 4.6308L40.6007 6.25723C39.7955 6.86084 39.0285 7.52365 38.3072 8.24493C37.5804 8.9717 36.9211 9.74069 36.3217 10.5404L34.6931 8.91149C34.1212 8.33986 33.8064 7.57961 33.8064 6.77115C33.8064 5.96268 34.1212 5.20268 34.6931 4.6308Z" fill="#1AD993"/>
<path d="M59.2471 36.0344L58.1445 37.1369C57.4128 37.8687 57.4128 39.0552 58.1445 39.7867C58.5105 40.1525 58.9902 40.3356 59.4697 40.3356C59.9491 40.3356 60.4288 40.1527 60.7948 39.7867L61.8973 38.6842C62.6291 37.9524 62.6291 36.7659 61.8973 36.0344C61.1653 35.3027 59.9791 35.3027 59.2471 36.0344Z" fill="#1AD993"/>
<path d="M18.7725 39.7133C19.2614 39.7133 19.7501 39.523 20.1174 39.1442C20.8379 38.4015 20.8202 37.2152 20.0772 36.4947C17.9491 34.4301 16.7773 31.6684 16.7773 28.7186C16.7773 25.7687 17.9493 23.0068 20.0774 20.9422C20.8202 20.2216 20.8379 19.0354 20.1174 18.2927C19.3969 17.5496 18.2106 17.5322 17.4679 18.2527C14.606 21.0291 13.0298 24.7459 13.0298 28.7186C13.0298 32.6912 14.606 36.408 17.4679 39.1844C17.8319 39.5375 18.3023 39.7133 18.7725 39.7133Z" fill="#ABFFE0"/>
<path d="M23.0747 34.1647C23.4252 34.4573 23.8512 34.6002 24.2749 34.6002C24.8111 34.6002 25.3435 34.3711 25.7142 33.9276C26.3776 33.1331 26.2714 31.9517 25.4771 31.2883C24.7116 30.649 24.2727 29.7124 24.2727 28.7185C24.2727 27.7247 24.7116 26.7878 25.4771 26.1485C26.2714 25.4851 26.3776 24.3034 25.7142 23.5092C25.0507 22.7147 23.869 22.6088 23.075 23.2721C21.4545 24.6255 20.5251 26.6107 20.5251 28.7183C20.5249 30.8264 21.4543 32.8113 23.0747 34.1647Z" fill="#1AD993"/>
<path d="M104.201 18.2524C103.458 17.5316 102.271 17.5498 101.551 18.2923C100.83 19.0351 100.848 20.2213 101.591 20.9418C103.719 23.0067 104.891 25.7684 104.891 28.7182C104.891 31.6683 103.719 34.4297 101.591 36.4944C100.848 37.2149 100.83 38.4011 101.551 39.1439C101.919 39.5226 102.407 39.7128 102.896 39.7128C103.366 39.7128 103.837 39.5369 104.201 39.1839C107.063 36.4072 108.639 32.6904 108.639 28.718C108.639 24.7456 107.063 21.0293 104.201 18.2524Z" fill="#ABFFE0"/>
<path d="M98.5939 23.272C97.7999 22.6089 96.6182 22.7146 95.9549 23.5091C95.2916 24.3033 95.3975 25.485 96.1917 26.1484C96.957 26.7877 97.3962 27.7246 97.3962 28.7184C97.3962 29.7123 96.957 30.6489 96.1917 31.288C95.3972 31.9513 95.2911 33.133 95.9544 33.9272C96.3249 34.3712 96.8573 34.6001 97.3937 34.6001C97.8172 34.6001 98.2431 34.4574 98.5936 34.1646C100.214 32.8112 101.144 30.8263 101.144 28.7182C101.144 26.6106 100.214 24.6254 98.5939 23.272Z" fill="#1AD993"/>
</svg>
