<svg width="128" height="128" viewBox="0 0 128 128" fill="none" xmlns="http://www.w3.org/2000/svg">
<path d="M64 0H36.2667C35.0885 0 34.1333 0.955208 34.1333 2.13333V17.0667H2.13333C0.955208 17.0667 0 18.0219 0 19.2V125.867C0 127.045 0.955208 128 2.13333 128H64C65.1781 128 66.1333 127.045 66.1333 125.867V2.13333C66.1333 0.955208 65.1781 0 64 0ZM61.8667 110.933H38.4V106.667H61.8667V110.933ZM4.26667 32H34.1333V96H4.26667V32ZM61.8667 23.4667H38.4V17.0667H61.8667V23.4667ZM4.26667 100.267H34.1333V106.667H4.26667V100.267ZM38.4 102.4V27.7333H61.8667V102.4H38.4ZM61.8667 4.26667V12.8H38.4V4.26667H61.8667ZM34.1333 21.3333V27.7333H4.26667V21.3333H34.1333ZM4.26667 110.933H34.1333V123.733H4.26667V110.933ZM38.4 123.733V115.2H61.8667V123.733H38.4Z" fill="#1AD993"/>
<path d="M127.931 116.796L102.331 18.6626C102.189 18.1126 101.832 17.6428 101.341 17.3563C100.85 17.0709 100.266 16.9928 99.7168 17.1397L67.7168 25.673C66.5835 25.9751 65.9064 27.1355 66.2022 28.2709L91.8022 126.404C91.9449 126.954 92.3022 127.424 92.7939 127.709C93.2845 127.994 93.8689 128.071 94.4168 127.923L126.417 119.39C127.548 119.088 128.224 117.929 127.931 116.796ZM74.2658 42.2782L102.144 34.8459L103.147 38.6855L75.271 46.1293L74.2658 42.2782ZM104.224 42.8251L116.597 90.2865L88.7293 97.722L76.3564 50.2574L104.224 42.8251ZM117.683 94.4167L119.868 102.789L91.9897 110.221L89.8137 101.852L117.683 94.4167ZM98.7439 21.8136L101.067 30.7199L73.1887 38.1501L70.8678 29.248L98.7439 21.8136ZM95.3897 123.253L93.0668 114.347L120.945 106.913L123.266 115.815L95.3897 123.253Z" fill="#ABFFE0"/>
<path d="M27.7332 38.3999H10.6665C9.48841 38.3999 8.5332 39.3551 8.5332 40.5332V57.5999C8.5332 58.778 9.48841 59.7332 10.6665 59.7332H27.7332C28.9113 59.7332 29.8665 58.778 29.8665 57.5999V40.5332C29.8665 39.3551 28.9113 38.3999 27.7332 38.3999ZM25.5999 55.4666H12.7999V42.6666H25.5999V55.4666Z" fill="#ABFFE0"/>
</svg>
