<svg width="507" height="115" viewBox="0 0 507 115" fill="none" xmlns="http://www.w3.org/2000/svg">
<path d="M315.586 115C315.56 115 315.56 115 315.533 115C314.505 114.987 313.661 114.596 313.529 114.084L285.815 13.3285L275.189 65.7946C275.083 66.2527 274.424 66.6299 273.554 66.7243C272.657 66.8186 271.761 66.603 271.312 66.2123L253.566 50.1518L242.438 63.1672C242.095 63.5849 241.278 63.8274 240.381 63.8005C239.511 63.7735 238.773 63.4502 238.535 63.019L234.686 55.8241L213.247 92.3241C212.957 92.8091 212.061 93.119 211.085 93.0786C210.11 93.0382 209.318 92.6474 209.213 92.1489L201.513 59.5698L189.7 74.512C189.357 74.9566 188.46 75.2261 187.538 75.1722C186.615 75.1183 185.876 74.7545 185.718 74.2829L173.72 34.0104L144.002 99.2225C143.765 99.7211 142.868 100.071 141.84 100.044C140.838 100.017 140.02 99.6133 139.915 99.0878L122.063 9.87922L105.239 59.7854C105.081 60.23 104.396 60.5803 103.525 60.6477C102.655 60.715 101.785 60.4995 101.363 60.1087L91.5538 50.8389L71.144 68.4623C70.6957 68.8396 69.8519 69.0417 69.0081 68.9743C68.1643 68.907 67.4787 68.5701 67.3205 68.139L57.2738 42.4179L44.5112 61.483C44.2211 61.9142 43.43 62.1837 42.5598 62.1837C41.6897 62.1837 40.8986 61.9681 40.6085 61.5504L34.0162 52.0785H2.08316C0.94929 52.0785 0 51.58 0 51.0006C0 50.4212 0.922921 49.9227 2.08316 49.9227H35.5193C36.3895 49.9227 37.1805 50.1787 37.4706 50.5964L42.5598 57.9395L55.8763 38.0121C56.1927 37.554 57.0365 37.2575 57.9858 37.298C58.9351 37.3249 59.6998 37.6752 59.8844 38.1468L70.3793 64.9996L89.8925 48.1442C90.2617 47.8208 90.9736 47.6187 91.712 47.6187C92.4503 47.6322 93.1359 47.8343 93.5051 48.1711L102.207 56.39L120.533 1.87592C120.718 1.35045 121.615 0.973189 122.643 1.00014C123.671 1.01361 124.542 1.43129 124.647 1.95676L142.763 92.5531L172.112 28.1494C172.349 27.6509 173.219 27.314 174.221 27.3275C175.223 27.341 176.041 27.7317 176.199 28.2302L188.671 70.1331L200.669 54.9618C201.012 54.5172 201.935 54.2477 202.858 54.3016C203.807 54.369 204.546 54.7462 204.651 55.2313L212.114 86.8538L232.761 51.7147C233.024 51.2701 233.842 50.9871 234.738 50.9871H234.765C235.688 50.9871 236.505 51.2835 236.742 51.7282L240.961 59.5698L251.404 47.3493C251.72 46.9855 252.406 46.7295 253.197 46.716C253.988 46.689 254.726 46.9046 255.122 47.2549L271.708 62.2645L283.416 4.46285C283.521 3.9239 284.391 3.5197 285.446 3.50622C286.501 3.49275 287.398 3.88348 287.529 4.42243L315.903 107.388L344.091 30.7094C344.276 30.1974 345.172 29.8336 346.174 29.8471C347.203 29.8605 348.047 30.2378 348.179 30.7633L362.286 81.2623L389.525 44.4524C389.815 44.0617 390.527 43.7922 391.345 43.7653C392.162 43.7383 392.927 43.9539 393.323 44.3177L404.477 54.9888L416.58 45.9076C417.002 45.5842 417.74 45.4091 418.505 45.4495C419.27 45.4899 419.929 45.7324 420.219 46.0827L439.521 69.2303L453.444 48.225C453.734 47.7939 454.525 47.4705 455.396 47.4705C456.292 47.4705 457.083 47.7939 457.347 48.2116L466.075 61.1462L482.688 51.3105C483.083 51.0814 483.663 50.9602 484.27 50.9602H504.917C506.051 50.9602 507 51.4587 507 52.0381C507 52.6174 506.077 53.1159 504.917 53.1159H485.219L466.866 63.9756C466.392 64.2586 465.627 64.3799 464.915 64.3125C464.176 64.2451 463.596 63.9622 463.333 63.6119L455.422 51.8764L441.71 72.5448C441.446 72.9625 440.682 73.2455 439.811 73.2589C438.941 73.2724 438.15 73.0164 437.834 72.6122L417.872 48.6966L405.98 57.6296C405.558 57.9395 404.872 58.1146 404.16 58.0877C403.422 58.0742 402.789 57.8586 402.446 57.5218L391.819 47.3627L363.341 85.8433C362.998 86.3014 362.101 86.5708 361.178 86.5169C360.229 86.4631 359.491 86.0858 359.359 85.6142L345.884 37.3923L317.696 114.111C317.458 114.636 316.588 115 315.586 115Z" fill="#1AD993"/>
</svg>
