<svg  fill="none" xmlns="http://www.w3.org/2000/svg">
<g clip-path="url(#clip0_299_4327)">
<path id="instagram-icon-1" d="M24.9753 7.35007C24.9167 6.02172 24.7019 5.1085 24.3942 4.31717C24.0768 3.4772 23.5884 2.72518 22.9485 2.10002C22.3234 1.46513 21.5664 0.971793 20.7362 0.659308C19.9403 0.351593 19.0318 0.136784 17.7035 0.0782165C16.3652 0.0146894 15.9403 0 12.5461 0C9.15191 0 8.72707 0.0146894 7.39376 0.0732565C6.06542 0.131824 5.15219 0.346824 4.36106 0.654348C3.5209 0.971793 2.76888 1.46017 2.14372 2.10002C1.50883 2.72518 1.01568 3.48216 0.703009 4.3124C0.395294 5.1085 0.180485 6.01676 0.121918 7.34511C0.0583906 8.68337 0.0437012 9.10822 0.0437012 12.5024C0.0437012 15.8967 0.0583906 16.3215 0.116958 17.6548C0.175525 18.9832 0.390524 19.8964 0.698239 20.6877C1.01568 21.5277 1.50883 22.2797 2.14372 22.9049C2.76888 23.5398 3.52586 24.0331 4.3561 24.3456C5.15219 24.6533 6.06046 24.8681 7.38899 24.9267C8.72211 24.9854 9.14714 24.9999 12.5414 24.9999C15.9356 24.9999 16.3604 24.9854 17.6937 24.9267C19.0221 24.8681 19.9353 24.6533 20.7264 24.3456C22.4066 23.696 23.7349 22.3676 24.3845 20.6877C24.692 19.8916 24.907 18.9832 24.9656 17.6548C25.0241 16.3215 25.0388 15.8967 25.0388 12.5024C25.0388 9.10822 25.0339 8.68337 24.9753 7.35007ZM22.724 17.5571C22.6702 18.7781 22.4651 19.4374 22.2942 19.8769C21.8741 20.966 21.0097 21.8304 19.9206 22.2505C19.4811 22.4214 18.817 22.6265 17.6008 22.6801C16.2822 22.7389 15.8867 22.7534 12.5511 22.7534C9.21544 22.7534 8.81501 22.7389 7.50116 22.6801C6.28022 22.6265 5.62092 22.4214 5.18138 22.2505C4.6394 22.0502 4.14606 21.7328 3.74563 21.3176C3.33051 20.9122 3.01307 20.4239 2.81276 19.8819C2.64182 19.4424 2.43674 18.7781 2.38314 17.5621C2.32438 16.2435 2.30988 15.8478 2.30988 12.5122C2.30988 9.17652 2.32438 8.77609 2.38314 7.46243C2.43674 6.24149 2.64182 5.58218 2.81276 5.14264C3.01307 4.60047 3.33051 4.10732 3.75059 3.7067C4.15579 3.29158 4.64417 2.97414 5.18634 2.77402C5.62588 2.60309 6.29014 2.39801 7.50612 2.34421C8.82474 2.28564 9.2204 2.27095 12.5559 2.27095C15.8965 2.27095 16.2919 2.28564 17.6058 2.34421C18.8267 2.39801 19.486 2.60309 19.9256 2.77402C20.4675 2.97414 20.9609 3.29158 21.3613 3.7067C21.7764 4.11209 22.0939 4.60047 22.2942 5.14264C22.4651 5.58218 22.6702 6.24626 22.724 7.46243C22.7826 8.78105 22.7973 9.17652 22.7973 12.5122C22.7973 15.8478 22.7826 16.2385 22.724 17.5571Z" />
<path id="instagram-icon-2" d="M12.5462 6.08039C9.00068 6.08039 6.12402 8.95686 6.12402 12.5026C6.12402 16.0483 9.00068 18.9247 12.5462 18.9247C16.0919 18.9247 18.9683 16.0483 18.9683 12.5026C18.9683 8.95686 16.0919 6.08039 12.5462 6.08039ZM12.5462 16.6685C10.246 16.6685 8.38029 14.8029 8.38029 12.5026C8.38029 10.2022 10.246 8.33666 12.5462 8.33666C14.8465 8.33666 16.7121 10.2022 16.7121 12.5026C16.7121 14.8029 14.8465 16.6685 12.5462 16.6685Z"/>
<path id="instagram-icon-3" d="M20.7229 5.82632C20.7229 6.65427 20.0516 7.3256 19.2234 7.3256C18.3955 7.3256 17.7241 6.65427 17.7241 5.82632C17.7241 4.99817 18.3955 4.32703 19.2234 4.32703C20.0516 4.32703 20.7229 4.99817 20.7229 5.82632Z" />
</g>
<defs>
<clipPath id="clip0_299_4327">
<rect width="25" height="25" fill="white"/>
</clipPath>
</defs>
</svg>
