<svg width="33" height="32" viewBox="0 0 33 32" fill="none" xmlns="http://www.w3.org/2000/svg">
<path d="M14.6196 10V14.8492V16.7874V21.6364H18.6931V16.7874V14.8492V10H14.6196Z" fill="#FF7602"/>
<path d="M2.40343 16.9126C3.52828 16.9126 4.44015 16.0172 4.44015 14.9126C4.44015 13.808 3.52828 12.9126 2.40343 12.9126C1.27857 12.9126 0.366699 13.808 0.366699 14.9126C0.366699 16.0172 1.27857 16.9126 2.40343 16.9126Z" fill="#0066D9"/>
<path d="M2.40343 19.0943C3.52828 19.0943 4.44015 18.1988 4.44015 17.0942C4.44015 15.9897 3.52828 15.0942 2.40343 15.0942C1.27857 15.0942 0.366699 15.9897 0.366699 17.0942C0.366699 18.1988 1.27857 19.0943 2.40343 19.0943Z" fill="#0066D9"/>
<path d="M4.44015 14.9126H0.366699V17.0944H4.44015V14.9126Z" fill="#0066D9"/>
<path d="M30.9168 19.0943C32.0417 19.0943 32.9535 18.1988 32.9535 17.0942C32.9535 15.9897 32.0417 15.0942 30.9168 15.0942C29.792 15.0942 28.8801 15.9897 28.8801 17.0942C28.8801 18.1988 29.792 19.0943 30.9168 19.0943Z" fill="#4285F4"/>
<path d="M30.9168 16.9126C32.0417 16.9126 32.9535 16.0172 32.9535 14.9126C32.9535 13.808 32.0417 12.9126 30.9168 12.9126C29.792 12.9126 28.8801 13.808 28.8801 14.9126C28.8801 16.0172 29.792 16.9126 30.9168 16.9126Z" fill="#4285F4"/>
<path d="M28.8801 17.0949H32.9535V14.9131H28.8801V17.0949Z" fill="#4285F4"/>
<path d="M9.43857 23.458C10.5634 23.458 11.4753 22.5626 11.4753 21.458C11.4753 20.3534 10.5634 19.458 9.43857 19.458C8.31372 19.458 7.40186 20.3534 7.40186 21.458C7.40186 22.5626 8.31372 23.458 9.43857 23.458Z" fill="#EA4335"/>
<path d="M9.43857 25.6402C10.5634 25.6402 11.4753 24.7448 11.4753 23.6402C11.4753 22.5357 10.5634 21.6401 9.43857 21.6401C8.31372 21.6401 7.40186 22.5357 7.40186 23.6402C7.40186 24.7448 8.31372 25.6402 9.43857 25.6402Z" fill="#EA4335"/>
<path d="M11.4753 21.4585H7.40186V23.6403H11.4753V21.4585Z" fill="#EA4335"/>
<path d="M9.43857 10.3672C10.5634 10.3672 11.4753 9.47174 11.4753 8.3672C11.4753 7.26262 10.5634 6.36719 9.43857 6.36719C8.31372 6.36719 7.40186 7.26262 7.40186 8.3672C7.40186 9.47174 8.31372 10.3672 9.43857 10.3672Z" fill="#EA4335"/>
<path d="M9.43857 17.458C10.5634 17.458 11.4753 16.5626 11.4753 15.458C11.4753 14.3534 10.5634 13.458 9.43857 13.458C8.31372 13.458 7.40186 14.3534 7.40186 15.458C7.40186 16.5626 8.31372 17.458 9.43857 17.458Z" fill="#EA4335"/>
<path d="M11.4753 8.3667H7.40186V15.5032H11.4753V8.3667Z" fill="#EA4335"/>
<path d="M23.8809 12.5493C25.0058 12.5493 25.9176 11.6539 25.9176 10.5493C25.9176 9.44475 25.0058 8.54932 23.8809 8.54932C22.7561 8.54932 21.8442 9.44475 21.8442 10.5493C21.8442 11.6539 22.7561 12.5493 23.8809 12.5493Z" fill="#34A853"/>
<path d="M23.8809 10.3672C25.0058 10.3672 25.9176 9.47174 25.9176 8.3672C25.9176 7.26262 25.0058 6.36719 23.8809 6.36719C22.7561 6.36719 21.8442 7.26262 21.8442 8.3672C21.8442 9.47174 22.7561 10.3672 23.8809 10.3672Z" fill="#34A853"/>
<path d="M21.844 10.549H25.9175V8.36719H21.844V10.549Z" fill="#34A853"/>
<path d="M16.6598 6.18557C17.7847 6.18557 18.6965 5.29014 18.6965 4.18556C18.6965 3.08098 17.7847 2.18555 16.6598 2.18555C15.5349 2.18555 14.623 3.08098 14.623 4.18556C14.623 5.29014 15.5349 6.18557 16.6598 6.18557Z" fill="#FF7602"/>
<path d="M16.6598 4.00344C17.7847 4.00344 18.6965 3.108 18.6965 2.00343C18.6965 0.898855 17.7847 0.00341797 16.6598 0.00341797C15.5349 0.00341797 14.623 0.898855 14.623 2.00343C14.623 3.108 15.5349 4.00344 16.6598 4.00344Z" fill="#FF7602"/>
<path d="M14.623 4.18526H18.6965V2.00342H14.623V4.18526Z" fill="#FF7602"/>
<path d="M16.6598 32.0034C17.7847 32.0034 18.6965 31.108 18.6965 30.0034C18.6965 28.8988 17.7847 28.0034 16.6598 28.0034C15.5349 28.0034 14.623 28.8988 14.623 30.0034C14.623 31.108 15.5349 32.0034 16.6598 32.0034Z" fill="#FF7602"/>
<path d="M16.6598 29.8218C17.7847 29.8218 18.6965 28.9264 18.6965 27.8218C18.6965 26.7172 17.7847 25.8218 16.6598 25.8218C15.5349 25.8218 14.623 26.7172 14.623 27.8218C14.623 28.9264 15.5349 29.8218 16.6598 29.8218Z" fill="#FF7602"/>
<path d="M14.623 30.0036H18.6965V27.8218H14.623V30.0036Z" fill="#FF7602"/>
<path d="M23.8809 25.6402C25.0058 25.6402 25.9176 24.7448 25.9176 23.6402C25.9176 22.5357 25.0058 21.6401 23.8809 21.6401C22.7561 21.6401 21.8442 22.5357 21.8442 23.6402C21.8442 24.7448 22.7561 25.6402 23.8809 25.6402Z" fill="#34A853"/>
<path d="M23.8809 18.5489C25.0058 18.5489 25.9176 17.6534 25.9176 16.5488C25.9176 15.4443 25.0058 14.5488 23.8809 14.5488C22.7561 14.5488 21.8442 15.4443 21.8442 16.5488C21.8442 17.6534 22.7561 18.5489 23.8809 18.5489Z" fill="#34A853"/>
<path d="M21.844 23.6399H25.9175V16.5488H21.844V23.6399Z" fill="#34A853"/>
<path d="M16.6598 12.1856C17.7847 12.1856 18.6965 11.2901 18.6965 10.1856C18.6965 9.08102 17.7847 8.18555 16.6598 8.18555C15.5349 8.18555 14.623 9.08102 14.623 10.1856C14.623 11.2901 15.5349 12.1856 16.6598 12.1856Z" fill="#FF7602"/>
<path d="M16.6598 23.8218C17.7847 23.8218 18.6965 22.9264 18.6965 21.8218C18.6965 20.7172 17.7847 19.8218 16.6598 19.8218C15.5349 19.8218 14.623 20.7172 14.623 21.8218C14.623 22.9264 15.5349 23.8218 16.6598 23.8218Z" fill="#FF7602"/>
</svg>
