<svg  fill="none" xmlns="http://www.w3.org/2000/svg">
<g clip-path="url(#clip0_299_4331)">
<path  id="linkedIn-icon-1" d="M24.9941 25V24.9989H25.0003V15.8302C25.0003 11.3448 24.0347 7.88955 18.7909 7.88955C16.2701 7.88955 14.5784 9.27289 13.8878 10.5843H13.8149V8.30831H8.84302V24.9989H14.0201V16.7344C14.0201 14.5583 14.4326 12.4541 17.1274 12.4541C19.7826 12.4541 19.8222 14.9375 19.8222 16.8739V25H24.9941Z" />
<path id="linkedIn-icon-2" d="M0.412842 8.30931H5.59618V24.9999H0.412842V8.30931Z"/>
<path id="linkedIn-icon-3" d="M3.00208 0C1.34479 0 0 1.34479 0 3.00208C0 4.65937 1.34479 6.03229 3.00208 6.03229C4.65937 6.03229 6.00417 4.65937 6.00417 3.00208C6.00312 1.34479 4.65833 0 3.00208 0V0Z" />
</g>
<defs>
<clipPath id="clip0_299_4331">
<rect width="25" height="25" fill="white"/>
</clipPath>
</defs>
</svg>
