<svg  fill="none" xmlns="http://www.w3.org/2000/svg">
    <path id="voice-bgr" fill-rule="evenodd" clip-rule="evenodd" d="M2432.81 100.245C2401.12 100.12 2369.44 100.203 2337.88 100.245C2302.09 100.203 2266.18 100.162 2230.39 100.12C2206.33 99.8686 2182.28 99.6174 2158.22 99.3663C2157.75 99.3663 2157.28 99.6174 2156.7 99.7848C2154.58 99.7848 2152.35 99.743 2150.24 99.743C2149.54 99.4081 2148.72 98.7384 2148.01 98.7384C2112.22 98.4036 2076.43 98.1525 2040.76 97.8176C2020.58 97.6083 2000.39 97.399 1980.33 97.0223C1975.28 96.9386 1967.89 95.1388 1965.66 95.8085C1951.11 100.245 1939.85 97.0642 1928.81 94.4691C1923.65 95.8504 1918.96 97.1061 1914.73 98.278C1904.99 96.5619 1896.19 94.9714 1887.74 93.4646C1883.75 95.3062 1880 97.0223 1874.95 99.3244C1860.76 90.8276 1846.21 95.6411 1831.42 98.6547C1828.49 96.7712 1826.14 95.2644 1823.44 93.5064C1812.29 94.7621 1801.61 95.9341 1792.7 96.9386C1788.47 95.4737 1785.3 94.3436 1782.14 93.2134C1776.5 97.8595 1763.13 90.7439 1756.79 95.2225C1756.67 95.3062 1749.51 93.5901 1745.88 93.6739C1741.77 93.7576 1737.9 94.9295 1733.2 95.7248C1731.91 93.925 1730.62 92.2926 1729.57 90.8695C1719.59 90.0742 1712.79 90.4509 1711.73 94.3017C1703.51 91.9996 1703.28 97.1061 1695.18 96.1434C1694.01 95.097 1692.6 93.7157 1691.08 92.3345C1690.37 92.4182 1689.43 92.5019 1688.96 92.5856C1688.96 95.5574 1688.96 98.4873 1688.96 101.459C1687.79 101.501 1686.73 101.501 1685.68 101.417C1685.09 97.1898 1684.39 93.0042 1683.8 88.7767C1672.54 92.6275 1662.56 94.9295 1648.13 92.1252C1646.37 90.3254 1644.37 88.2326 1642.61 86.3909C1634.99 89.2371 1627.83 91.9159 1621.61 94.218C1615.62 91.7485 1609.41 89.1953 1603.54 86.7676C1596.97 89.3208 1592.39 91.1625 1584.65 94.0506C1584.65 95.4318 1584.65 98.4036 1584.65 101.334C1583.82 101.375 1582.89 101.375 1582.06 101.375C1580.66 96.3945 1579.25 91.4136 1577.37 84.9678C1573.15 88.4419 1570.8 90.2835 1567.98 92.5856C1564.81 89.279 1562.23 86.7258 1559.77 84.1307C1558.48 84.2144 1557.19 84.34 1555.9 84.4237C1555.07 86.4746 1554.25 88.5256 1552.96 91.6648C1551.09 89.4045 1550.15 88.4 1549.21 87.3117C1546.63 88.0651 1544.51 88.693 1540.41 89.9068C1539.59 84.9259 1539 81.0333 1538.41 77.1407C1537.59 77.1407 1536.77 77.1407 1535.95 77.1407C1533.84 81.703 1531.72 86.2235 1528.91 92.5019C1524.68 88.107 1521.75 85.3026 1519.05 82.4983C1518.11 82.5401 1517.52 82.582 1516.23 82.582C1516.23 86.0979 1516.23 89.6138 1516.23 93.1297C1515.41 93.1297 1514.71 93.1716 1514 93.1716C1512.6 90.3254 1511.19 87.4792 1509.78 84.6329C1508.72 84.7167 1507.79 84.8004 1506.85 84.8422C1504.97 88.5256 1502.97 92.2508 1501.1 95.9341C1499.45 87.8559 1504.5 79.5684 1494.99 71.1553C1493.23 77.9778 1491.71 84.2144 1490.18 90.4509C1488.89 90.4091 1487.6 90.4091 1486.31 90.3672C1484.2 87.7722 1482.09 85.1771 1479.97 82.582C1478.8 82.6239 1477.63 82.6657 1476.34 82.7076C1476.34 86.2653 1476.34 89.8231 1476.34 93.4227C1474.69 93.4227 1473.05 93.3809 1471.41 93.3809C1470.82 89.1953 1470.12 85.0515 1469.53 80.6148C1466.95 81.41 1465.54 81.9123 1463.66 82.4564C1461.55 75.9688 1459.56 69.774 1456.98 62.1562C1454.98 69.8996 1453.34 76.178 1451.69 82.4564C1450.17 85.5956 1448.64 88.7767 1447.12 91.9159C1446.06 91.874 1445.12 91.8322 1444.07 91.7903C1443.6 88.693 1443.01 85.6375 1442.42 81.7867C1438.44 86.0979 1435.5 89.4464 1432.22 92.7949C1432.22 88.9441 1432.22 85.0515 1432.22 80.5729C1419.54 82.0797 1420.36 79.1498 1420.25 76.6803C1420.01 70.9879 1420.13 65.3373 1420.13 59.6449C1414.38 69.0625 1411.45 78.4801 1408.75 87.8977C1408.16 89.9905 1408.16 92.1252 1407.81 94.2598C1407.34 94.2598 1406.87 94.218 1406.4 94.218C1404.76 90.2417 1403.23 86.2653 1401.59 82.289C1400.3 82.3309 1399.01 82.4146 1397.72 82.4564C1397.25 85.0934 1396.9 87.7303 1396.43 90.3672C1395.6 90.3672 1394.78 90.3672 1393.96 90.3672C1393.49 86.0979 1392.91 81.7867 1392.44 77.5174C1390.68 77.5593 1388.92 77.5593 1387.16 77.6011C1386.22 81.3263 1385.4 85.0515 1384.46 88.7767C1382.7 88.7348 1380.82 88.7348 1379.18 88.693C1379.18 77.643 1379.18 66.5511 1379.18 55.5011C1377.53 55.5011 1376.36 55.5011 1375.07 55.543C1372.37 69.4392 1369.67 83.2936 1366.97 97.1898C1365.56 97.1479 1364.16 97.1479 1362.98 97.1061C1362.98 95.3062 1362.98 93.5483 1362.98 91.7485C1362.98 89.9487 1362.98 88.107 1362.98 86.3909C1347.14 85.3026 1340.1 82.6239 1339.87 77.5174C1339.63 71.4902 1339.75 65.421 1339.75 59.3937C1330.48 68.2672 1334.59 78.3127 1316.16 86.0142C1314.52 83.4191 1312.88 80.824 1311.12 78.1871C1308.77 79.6102 1306.31 81.0752 1303.96 82.5401C1302.9 82.4983 1301.85 82.4146 1300.67 82.3727C1300.67 74.2945 1300.67 66.1744 1300.67 57.6358C1295.39 65.421 1290.11 72.5784 1283.89 81.2845C1282.37 78.1453 1281.78 76.6384 1280.61 74.2526C1274.74 77.936 1269.93 80.9078 1263.59 84.9259C1261.72 76.1362 1264.41 68.5602 1261.72 61.1936C1259.96 61.1936 1258.2 61.2354 1256.43 61.2354C1255.85 65.3792 1255.14 69.5229 1254.56 73.6667C1253.38 73.6248 1252.33 73.5829 1251.04 73.5829C1251.04 69.3136 1251.04 65.0025 1251.04 60.7331C1250.69 60.7331 1249.86 60.7331 1249.28 60.6913C1247.99 63.2864 1246.7 65.8814 1244.94 69.3973C1240.95 67.472 1239.3 66.7186 1238.6 66.3419C1234.49 72.0761 1230.27 77.8104 1225.69 84.2562C1203.86 71.3646 1218.77 57.3847 1210.91 44.6186C1209.03 44.6604 1207.15 44.7023 1205.51 44.7441C1205.51 53.4502 1205.51 62.1562 1205.51 70.8623C1204.33 70.8623 1203.63 70.8204 1202.69 70.8204C1201.87 67.5138 1201.05 64.1653 1200.23 60.8587C1198.23 60.9006 1196.24 60.9424 1194.24 60.9843C1191.66 73.1225 1188.96 85.2608 1186.38 97.399C1185.09 94.5528 1182.86 91.7066 1182.74 88.8604C1182.27 77.643 1182.63 66.4674 1182.63 55.25C1181.22 55.25 1179.81 55.25 1178.64 55.25C1178.64 67.8487 1178.64 80.4892 1178.64 93.0879C1177.46 93.0879 1176.41 93.0879 1175.23 93.0879C1173.36 77.8104 1171.36 62.4911 1169.48 47.2136C1168.78 47.2136 1168.07 47.2136 1167.37 47.2136C1166.2 56.2545 1165.02 65.2536 1163.97 74.2945C1163.03 74.7549 1161.97 75.2153 1161.03 75.6339C1160.68 75.4665 1160.1 75.299 1160.1 75.0898C1160.1 70.2345 1160.1 65.3792 1160.1 60.482C1158.45 60.482 1156.81 60.4401 1155.17 60.4401C1153.99 65.0862 1153.06 69.774 1151.76 74.4201C1149.53 82.4983 1147.07 90.5347 1144.72 98.6129C1144.37 84.0888 1144.02 69.5648 1143.67 55.0826C1141.56 55.0407 1139.33 55.0407 1137.21 54.9989C1135.34 65.2954 1137.21 75.6758 1135.92 86.0142C1134.51 86.0142 1133.34 85.9723 1131.7 85.9723C1131.7 68.058 1131.7 50.1436 1131.7 32.2292C1127.24 44.9116 1126.07 57.6358 1124.66 70.3182C1124.31 72.9551 1122.31 75.5502 1121.14 78.1871C1121.14 75.0479 1121.14 71.9087 1121.14 68.7695C1119.49 68.7276 1117.73 68.7276 1116.09 68.6858C1113.86 73.2062 1111.63 77.6848 1109.52 82.2053C1108.23 80.0288 1106.47 77.8941 1105.88 75.7176C1103.89 68.8532 1102.25 61.9888 1100.48 55.1244C1099.78 55.1244 1099.19 55.1663 1098.37 55.1663C1098.37 70.653 1098.37 86.0979 1098.37 101.585C1097.2 101.585 1095.2 101.585 1093.56 101.585C1093.68 82.289 1094.03 62.9515 1093.91 43.6559C1093.91 41.1445 1091.21 38.675 1089.81 36.1636C1086.52 47.2973 1086.76 58.1799 1086.29 69.0625C1086.17 71.6994 1083.94 74.2945 1082.65 76.9314C1081.24 73.29 1079.72 69.6485 1078.31 66.007C1077.37 66.0489 1076.43 66.0907 1075.49 66.1744C1073.97 71.0716 1072.56 75.9687 1071.03 80.9078C1069.74 78.2708 1067.75 75.6758 1067.51 73.0388C1066.92 68.3928 1067.39 63.7468 1067.39 59.1008C1065.75 59.1008 1063.99 59.0589 1062.35 59.0589C1056.6 71.6994 1061.88 84.6329 1057.42 97.3572C1055.54 77.4337 1053.66 57.5102 1051.79 37.5867C1048.27 49.6831 1048.38 61.7377 1048.03 73.7504C1047.92 76.6384 1045.8 79.5265 1044.63 82.4564C1043.22 80.1544 1040.99 77.8523 1040.64 75.5083C1040.05 70.4437 1040.41 65.3792 1040.41 60.3146C1039 60.3146 1037.71 60.3146 1036.3 60.3146C1036.3 63.6212 1036.65 66.9278 1035.95 70.2345C1035.83 70.6949 1031.25 71.0716 1028.79 71.4901C1027.5 68.8532 1025.39 66.2581 1025.15 63.6212C1024.68 56.2127 1025.03 48.8042 1025.03 41.3956C1024.09 41.3956 1023.16 41.3956 1022.22 41.3956C1020.22 55.8778 1018.11 70.36 1016.11 84.8422C1015.18 84.8422 1014.35 84.8004 1013.42 84.8004C1013.42 82.5401 1013.42 80.3218 1013.42 78.0616C1013.42 60.5239 1013.53 42.9443 1013.3 25.4066C1013.3 23.272 1011.66 21.1373 1010.72 18.9608C1009.07 19.0445 1007.31 19.1282 1005.67 19.2119C1005.67 21.4303 1005.67 23.6905 1005.67 25.9089C1005.67 39.5958 1005.91 53.2828 1005.55 66.9278C1005.44 69.3136 1003.21 71.6994 1001.92 74.0852C1000.98 63.9561 999.921 53.8687 998.983 43.7396C997.692 43.7396 996.518 43.7396 995.228 43.7396C993.585 55.6686 992.059 67.5975 990.417 79.5684C989.126 76.9733 986.779 74.3364 986.661 71.7413C986.309 54.8733 986.544 37.9634 986.544 21.0955C986.544 18.2492 986.544 15.4449 986.544 12.5987C981.616 25.0718 979.738 37.503 979.034 49.9761C978.33 62.4492 978.917 74.9223 978.917 87.3954C978.095 87.3954 977.157 87.3955 976.335 87.3536C974.34 64.2072 972.463 41.0608 970.468 17.9562C969.295 17.9562 968.239 17.9562 967.065 17.9562C967.065 37.4612 967.065 56.9242 967.065 76.4292C966.244 76.4292 965.422 76.4292 964.601 76.4292C962.606 64.7095 960.611 52.9479 958.616 41.2282C958.264 41.2282 957.912 41.2282 957.56 41.2282C955.8 49.8506 954.04 58.4729 952.28 67.0953C944.77 54.4129 953.805 41.4375 942.423 28.9644C941.132 29.8434 940.78 30.7642 940.663 31.6432C939.372 45.958 938.081 60.2727 936.556 74.5875C936.321 76.3036 934.092 77.9778 932.918 79.6939C932.918 62.8259 932.918 45.9998 932.918 29.1318C931.745 29.1318 930.454 29.1318 929.163 29.1318C929.163 36.1636 929.984 43.2373 929.046 50.2691C928.107 57.3428 933.387 64.6676 921.536 71.4901C921.536 59.5193 921.536 47.5903 921.536 35.6195C920.714 35.6195 920.01 35.6195 919.306 35.6195C917.429 43.4466 915.551 51.2318 913.674 59.0589C906.985 49.9761 914.964 40.4748 901.47 31.685C901.47 47.4648 901.47 63.2026 901.47 78.9824C899.006 78.9824 897.128 78.9824 894.899 79.0242C893.843 61.068 895.016 43.0699 892.2 25.1136C889.031 36.4566 888.093 47.7996 886.685 59.1008C886.333 61.7377 884.338 64.3746 883.047 66.9697C883.047 59.8123 883.047 52.6131 883.047 45.4557C881.404 45.4557 879.761 45.4975 878.118 45.4975C878.118 54.9152 878.118 64.3746 878.118 73.7922C860.986 62.4911 870.491 50.2273 864.272 38.5076C857.114 57.2172 861.808 76.0525 857.349 94.804C855.706 78.2708 854.063 61.7795 852.538 45.2464C851.012 45.2464 849.604 45.2464 847.961 45.2464C847.961 52.6549 847.961 60.0634 847.961 67.4301C844.676 65.1699 844.441 62.9515 844.441 60.7331C844.441 47.7578 844.676 34.7405 844.323 21.7652C844.206 18.6259 841.976 15.5286 840.686 12.3894C839.864 12.4312 839.043 12.4731 838.222 12.515C836.696 29.0063 835.053 45.4557 833.528 61.947C832.589 61.947 831.65 61.947 830.712 61.947C828.951 50.018 827.074 38.089 825.314 26.16C824.14 26.16 822.849 26.16 821.676 26.16C821.676 28.2947 821.676 30.4294 821.676 32.564C821.676 52.1527 821.793 71.7831 821.559 91.3718C821.559 94.7621 819.447 98.1106 818.39 101.501C817.921 101.92 817.921 102.38 818.39 102.798C817.804 103.468 817.217 104.138 815.574 106.063C814.518 103.636 814.049 102.547 813.579 101.459C813.579 80.9915 813.579 60.5239 813.579 40.0981C812.406 40.0981 810.763 40.0981 809.472 40.0981C809.472 50.018 809.472 59.9797 809.472 69.8996C803.722 56.2127 811.115 42.3165 799.85 28.797C798.559 42.1909 798.794 55.5848 798.442 68.9369C798.325 71.532 796.095 74.1271 794.922 76.7222C794.922 70.5693 795.743 64.3746 794.687 58.2218C792.458 45.1208 789.406 32.0199 786.59 18.9189C783.891 19.9653 783.422 21.0536 783.305 22.1C782.131 48.9716 781.075 75.8432 779.902 102.715C779.432 104.682 778.963 106.607 778.494 108.575C777.789 108.575 777.085 108.575 776.381 108.575C775.912 106.189 775.56 103.803 775.091 101.417C775.091 85.9723 775.091 70.5275 775.091 55.0826C773.448 55.0826 772.274 55.0826 770.984 55.0826C770.984 58.1799 770.984 61.2773 770.984 64.3746C769.341 64.3746 768.167 64.3746 766.759 64.3328C765.468 44.2419 764.06 24.1509 762.77 4.06004C761.831 4.06004 760.892 4.06004 760.071 4.06004C760.071 26.0763 760.071 48.0926 760.071 70.1089C758.897 70.1089 757.606 70.1089 756.433 70.1089C756.433 53.5758 756.433 37.0426 756.433 20.5513C755.26 20.5513 753.969 20.5513 752.795 20.5095C752.795 24.7369 752.795 28.9644 752.795 34.322C749.158 32.3966 747.867 31.5595 746.341 30.7642C744.933 30.7642 743.408 30.7642 742.117 30.7223C742.117 39.1354 742.117 47.5485 742.117 56.0034C740.943 55.9615 739.887 55.9197 738.714 55.8778C736.837 51.7341 734.959 47.6322 733.082 43.4884C731.791 43.5303 730.735 43.5722 729.092 43.614C729.092 53.785 729.092 63.9979 729.092 74.1689C727.918 74.1689 726.628 74.1689 724.985 74.1689C724.985 55.0407 724.985 35.8706 724.985 16.7424C723.811 16.7424 722.168 16.7424 720.878 16.7843C720.878 20.342 720.878 23.858 720.878 27.4157C720.056 27.4157 719.704 27.3739 719.118 27.3739C717.005 19.5886 714.893 11.8453 712.898 4.06004C711.96 4.06004 711.138 4.06004 710.199 4.06004C710.199 6.32026 710.199 8.53864 710.199 10.7989C710.199 29.2574 710.317 47.7578 709.965 66.2163C709.965 68.8114 707.618 71.4064 706.327 74.0015C706.327 67.179 706.21 60.3564 706.21 53.5339C704.45 53.5339 702.689 53.492 700.929 53.492C698.7 59.9379 696.47 66.4256 694.241 72.8714C693.185 72.8295 692.011 72.8295 691.307 72.7877C691.307 66.2581 691.307 59.7286 691.307 53.1572C690.486 53.1153 689.782 53.0735 688.96 52.9898C687.904 54.1199 686.848 55.25 685.675 56.3801C684.736 56.3801 683.797 56.3801 682.858 56.3801C680.159 37.5867 677.46 18.7934 674.644 0C673.588 20.8025 673.588 41.5631 657.277 61.4447C656.808 60.2727 656.104 58.6822 655.048 55.7523C652.701 62.24 650.941 67.3045 648.829 72.3691C648.829 52.4456 648.829 32.4803 648.829 12.5568C646.834 12.5568 644.722 12.5568 642.257 12.5568C642.257 30.7642 642.257 48.9716 642.257 67.179C640.615 67.179 638.972 67.179 636.977 67.179C636.977 56.0871 636.977 45.0371 636.977 33.9453C632.048 47.7578 637.916 61.9051 623.13 74.8386C621.253 56.0034 619.493 36.7078 617.732 17.4958C616.442 17.4958 614.916 17.4958 613.743 17.4958C613.743 32.6059 613.743 47.7996 613.743 62.9515C612.569 62.9515 611.279 62.9515 609.636 62.9515C609.636 57.5102 609.636 52.0689 609.636 46.5858C609.284 46.5858 608.462 46.6277 607.876 46.6277C605.881 54.4129 603.886 62.1981 601.774 69.9415C598.723 67.6812 599.192 65.421 598.605 63.2026C598.019 61.0261 596.493 58.8915 595.437 56.715C594.029 56.7568 592.504 56.7987 591.095 56.8405C589.101 59.0589 587.223 61.2354 585.228 63.4538C583.938 63.4538 582.764 63.4538 581.473 63.4119C580.417 57.6777 579.478 51.9015 578.422 46.1672C575.489 54.5384 575.841 62.8678 575.371 71.239C575.254 73.8759 573.142 76.471 572.086 79.108C570.678 55.6686 569.269 32.271 567.861 8.83163C567.744 7.70152 567.157 6.5714 566.688 5.44129C565.632 5.48314 564.576 5.48314 563.754 5.525C563.754 26.0345 563.754 46.5439 563.754 67.0953C562.933 67.0953 562.229 67.0953 561.525 67.0953C560.117 50.1436 558.826 33.1919 557.418 16.282C556.01 16.282 554.367 16.282 553.076 16.3239C553.076 44.7023 553.076 73.0388 553.076 101.417C552.724 101.836 552.607 102.254 553.076 102.715C552.489 103.426 551.903 104.138 550.26 106.105C549.204 103.594 548.734 102.464 548.265 101.375C548.382 95.683 548.617 89.9905 548.734 84.2981C548.852 75.8432 548.03 67.4301 548.852 59.017C549.79 50.4366 530.546 43.7396 531.954 35.1591C532.072 34.7824 529.49 34.322 525.5 33.0663C525.5 46.9206 525.5 59.896 525.5 72.8295C524.679 72.8295 523.388 72.8295 522.332 72.8295C520.337 56.2964 518.46 39.7633 516.582 23.2301C516.23 23.2301 515.878 23.2301 515.526 23.2301C513.531 37.3775 511.536 51.5667 509.424 65.714C508.251 65.714 507.077 65.6722 505.904 65.6722C505.904 45.5812 505.904 25.4903 505.904 5.39943C505.083 5.39943 504.378 5.39943 503.557 5.39943C501.562 18.7097 499.45 32.0199 497.22 46.5439C494.874 40.1818 493.113 35.0754 491.236 30.0108C489.828 24.5695 494.404 18.8352 482.67 12.3475C482.67 28.8388 482.67 43.8233 482.67 58.8078C481.496 58.8078 480.206 58.8078 479.384 58.7659C479.384 44.2419 479.384 29.7178 479.384 15.1938C478.563 15.1938 477.976 15.1938 477.272 15.1938C475.277 23.9417 473.282 32.6477 471.287 41.3956C470.701 41.3956 469.997 41.4375 469.41 41.4375C468.471 39.5121 467.65 37.6286 466.711 35.7032C463.66 40.14 467.884 45.2883 462.721 48.553C454.977 53.4502 456.971 58.1381 456.737 62.9097C456.15 72.2436 456.854 81.6193 456.502 90.9951C456.385 93.4227 454.625 95.8504 453.686 98.3199C453.451 91.7066 453.568 85.1352 452.747 78.522C451.926 72.0761 450.166 65.6722 448.875 59.2263C447.584 59.2682 446.293 59.2682 445.002 59.31C445.002 66.0907 445.002 72.8295 445.002 79.6102C444.181 79.6102 443.477 79.6521 442.773 79.6521C440.661 73.1644 438.431 66.6767 436.319 60.189C435.38 60.189 434.442 60.2309 433.62 60.2309C433.62 68.0998 433.62 76.0106 433.62 83.8795C432.799 83.8795 432.212 83.8795 431.508 83.8795C429.63 70.946 427.753 57.9706 425.758 45.0371C424.467 45.0371 423.059 45.0371 421.768 45.0371C421.768 51.5667 421.768 58.0543 421.768 64.5839C420.947 64.5839 420.125 64.542 419.304 64.542C418.717 63.6631 418.013 62.7841 417.427 61.9051C416.488 59.2263 415.667 56.5057 414.493 53.8269C413.32 50.9388 411.677 48.0508 410.269 45.2045C408.861 45.2464 407.452 45.2883 405.81 45.372C405.81 53.0316 405.81 60.6913 405.81 68.3928C405.458 68.3928 404.871 68.3509 404.401 68.3509C402.524 57.5521 400.646 46.7114 398.652 35.9125C395.249 51.9015 395.483 67.8487 395.131 83.754C395.131 86.0142 392.315 88.2744 391.142 90.5765C391.142 76.8896 391.142 63.2027 391.142 49.5157C390.32 49.5157 389.264 49.5157 388.443 49.5157C387.973 52.7805 387.504 56.0453 386.8 60.8168C384.336 58.1799 383.28 57.0498 382.224 55.9197C381.167 55.9197 380.111 55.9616 379.055 55.9616C376.591 67.0953 374.009 78.229 371.545 89.3627C370.254 89.4045 369.081 89.4464 367.79 89.4883C364.857 84.2562 362.04 79.0661 358.872 73.3737C357.581 74.7968 356.408 75.9269 354.53 77.9778C352.301 63.7468 350.423 50.4784 348.428 37.1682C347.49 37.1682 346.434 37.21 345.612 37.21C345.612 46.2928 345.612 55.3756 345.612 64.4583C328.128 64.2909 337.985 58.3473 331.296 55.6686C329.771 56.2964 327.541 56.7568 327.541 57.2591C327.189 71.9924 326.955 86.7676 326.837 101.501C326.368 103.761 325.898 106.021 325.312 108.323C324.608 108.282 323.904 108.282 323.199 108.24C322.847 105.98 322.378 103.761 322.026 101.501C322.026 81.6612 322.143 61.7795 322.026 41.9398C322.026 41.3119 320.853 40.6841 320.031 40.0981C319.797 39.9307 319.092 39.8051 318.506 39.7214C317.919 39.6377 317.332 39.6377 314.751 39.4703C314.751 49.3483 314.985 59.1426 314.633 68.8951C314.516 71.532 312.404 74.1271 311.113 76.7222C310.996 71.4901 311.7 66.2581 310.526 61.0261C309.94 58.4311 305.95 55.9197 303.486 53.4083C301.843 53.5339 299.965 53.7013 298.323 53.8269C298.323 61.5703 298.323 69.3136 298.323 77.057C296.328 76.3873 295.858 75.7176 295.389 75.0898C295.037 74.5875 294.216 74.1271 293.629 73.6667C292.69 73.7085 291.751 73.7085 290.813 73.7504C289.405 78.8987 287.879 84.047 286.471 89.1953C286.119 89.1953 285.767 89.1534 285.415 89.1534C283.42 79.5684 281.425 69.9415 279.548 60.3564C276.379 70.1089 276.614 79.8614 276.262 89.572C276.145 92.167 273.915 94.7621 272.624 97.3572C271.451 85.0515 270.277 72.7458 269.104 60.3983C267.226 60.3564 265.349 60.3564 263.472 60.3146C262.65 64.9187 261.711 69.4811 260.89 74.0852C249.977 73.4992 253.497 70.3182 253.38 68.1417C252.911 61.5284 253.145 54.8733 253.145 48.26C251.268 48.2182 249.508 48.2182 247.63 48.1763C246.574 53.7013 245.518 59.2263 244.462 64.7513C243.64 64.7513 242.819 64.7513 241.998 64.7513C241.998 56.4638 241.998 48.1763 241.998 39.8888C240.824 39.8888 239.768 39.8888 238.595 39.8888C236.6 54.957 234.605 70.0252 232.61 85.0515C232.375 85.0515 232.023 85.0097 231.671 85.0097C229.794 71.2809 227.916 57.5521 226.039 43.8233C224.161 43.7814 222.284 43.7814 220.524 43.7396C216.299 52.4875 220.758 61.4865 214.656 70.2763C214.656 66.1326 214.656 61.9888 214.656 57.8451C213.835 57.8451 213.014 57.8451 212.31 57.8869C211.019 66.1326 209.728 74.3782 208.437 82.6657C206.677 82.6239 204.917 82.6239 203.274 82.582C203.274 72.4528 203.274 62.3655 203.274 52.2364C197.994 61.5284 198.58 71.1134 187.785 79.8614C186.377 79.8195 184.969 79.7358 183.326 79.6939C183.326 75.1735 183.326 70.6112 183.326 66.0907C181.331 63.6212 177.811 61.1936 176.637 58.6403C174.525 53.8269 173.703 48.9716 172.413 44.1163C169.01 46.1254 169.127 49.6413 167.132 49.8087C151.995 51.0225 158.331 54.9151 157.862 57.9706C155.985 58.1799 152.582 58.5985 152.464 58.5148C150 56.2545 146.362 53.9943 146.01 51.6504C145.072 45.9998 145.658 40.3074 145.658 34.6568C142.255 35.5358 141.903 36.4148 141.786 37.2937C141.551 43.2373 146.128 49.8924 140.026 54.9151C128.761 64.2072 130.873 73.5411 129.934 83.0006C129.817 84.8422 128.409 86.6839 127.587 88.4837C125.827 88.4418 124.419 88.4 122.307 88.3581C122.307 79.5684 122.307 70.8204 122.307 62.0307C121.485 62.0307 120.312 62.0307 119.021 62.0725C119.021 75.2572 119.021 88.4418 119.021 101.627C117.379 101.627 115.736 101.627 114.093 101.627C114.093 97.0223 114.093 92.3763 114.093 86.2235C111.277 88.4 110.455 89.0278 108.46 90.4509C105.879 85.0097 103.767 80.2799 101.537 75.5502C100.481 75.592 99.3075 75.592 98.4861 75.6339C98.4861 80.1544 98.4861 84.6748 98.4861 89.1953C95.2006 83.7121 95.9045 78.2708 95.2006 72.8295C94.4965 67.7231 98.4862 62.3237 92.267 57.4684C90.7415 57.5102 89.2159 57.5521 87.5731 57.5939C87.5731 62.7422 87.5731 67.8905 87.5731 73.0388C87.2212 73.0388 86.165 73.0388 85.4609 73.0388C81.7059 63.9561 77.9509 54.9151 74.0786 45.8324C73.3745 45.8324 72.9052 45.8742 72.0837 45.8742C72.0837 54.4547 72.0837 63.0771 72.0837 71.6576C68.4462 67.6394 69.2675 63.6212 68.446 59.603C67.7421 55.7941 65.3951 51.9852 63.4003 47.2136C55.3036 56.9661 70.4409 66.7604 51.0792 75.4246C49.7885 73.5411 48.8497 72.2017 48.0283 71.0716C34.1818 77.0151 38.1714 83.9633 37.702 90.7021C37.4674 94.3436 37.5847 97.985 37.4673 101.668C36.2939 101.71 35.2378 101.668 34.1818 101.585C30.6614 94.0506 27.1411 86.5165 23.7382 78.9824C22.2126 78.9824 20.6872 78.9824 19.0444 79.0242C19.0444 85.1771 19.0444 91.3299 19.0444 97.4409C17.4016 97.4409 15.7587 97.399 14.1159 97.399C14.1159 86.0979 14.1159 74.7549 14.1159 63.4538C13.2945 63.4538 12.7078 63.4538 12.0037 63.4538C9.07013 67.9742 6.13654 72.4947 3.20294 77.0152C3.08557 75.6339 4.37634 73.7922 2.38153 72.997C-7.00598 69.3555 -3.25098 64.9606 -4.77643 60.8587C-6.0672 57.3847 -10.1743 54.0362 -12.0518 50.5621C-13.1078 48.4693 -12.2864 46.2509 -12.2864 44.0744C-13.6946 44.0326 -15.2201 43.9907 -16.6282 43.9489C-17.6843 46.5439 -19.5618 49.0972 -19.6791 51.6922C-20.1485 60.8169 -20.0311 69.9415 -20.2658 79.0242C-20.2658 79.2754 -21.5566 79.5265 -21.5566 79.5684C-24.4902 78.3127 -27.3065 77.0151 -32.3522 74.7968C-35.7552 80.3218 -38.1021 84.2562 -40.801 88.693C-43.0305 83.0006 -45.0253 77.8523 -47.0202 72.704C-48.311 72.7458 -49.3671 72.7877 -51.0099 72.7877C-51.0099 77.4337 -51.0099 82.1216 -51.0099 86.7676C-52.1833 86.7676 -53.4741 86.7676 -54.6475 86.7676C-54.6475 82.1634 -54.6475 77.5174 -54.6475 72.9133C-54.9996 72.9133 -55.821 72.9133 -56.4077 72.9551C-58.0505 76.6384 -59.6934 80.3636 -61.3362 84.047C-63.0963 83.9632 -64.8564 83.9214 -66.382 83.8377C-66.382 79.7776 -66.382 75.7176 -66.382 71.6576C-67.2034 71.6576 -67.9074 71.6994 -68.7288 71.6994C-69.3156 74.4201 -69.9022 77.0989 -70.489 79.8195C-71.6624 79.8195 -72.9532 79.7776 -73.7746 79.7776C-73.7746 75.2153 -73.7746 70.653 -73.7746 66.0907C-74.948 66.0907 -75.5347 66.0907 -76.3561 66.1326C-76.9429 69.3555 -77.5296 72.5784 -78.1163 75.8432C-81.2846 70.4437 -82.6927 65.0443 -85.2744 59.7286C-85.7437 58.724 -90.6721 57.9706 -93.6057 57.0917C-95.3658 58.0544 -97.126 59.0589 -99.0035 60.0634C-101.468 58.3473 -103.815 56.715 -106.161 55.0407C-106.983 55.1244 -107.922 55.1663 -108.743 55.25C-108.743 62.0725 -108.743 68.8951 -108.743 75.7176C-109.565 75.7176 -110.268 75.7176 -110.973 75.6758C-111.559 73.7922 -112.146 71.8669 -112.733 69.9833C-123.411 80.4473 -118.365 91.1625 -119.069 101.794C-119.539 102.212 -119.421 102.673 -119.069 103.091C-119.421 106.231 -119.773 109.412 -120.243 112.551C-121.534 108.951 -122.707 105.352 -123.998 101.752C-123.998 90.0742 -123.998 78.3964 -123.998 66.7604C-125.993 66.7186 -127.87 66.6767 -129.748 66.6348C-130.452 71.5739 -131.156 76.5129 -131.977 81.4519C-132.564 81.4519 -133.033 81.41 -133.62 81.41C-134.559 80.2799 -135.497 79.1498 -136.788 77.6011C-138.314 79.2335 -139.37 80.3636 -140.543 81.4937C-141.365 81.4519 -142.303 81.41 -143.125 81.3682C-143.125 71.7413 -143.125 62.0725 -143.125 52.4456C-144.298 52.4038 -145.237 52.3201 -146.41 52.2782C-151.691 57.8869 -156.854 63.4538 -162.135 69.0625C-174.808 59.9379 -166.124 49.725 -171.053 39.6795C-173.517 42.5676 -175.629 44.9953 -177.741 47.4229C-178.915 47.3392 -180.206 47.2973 -181.496 47.2136C-181.496 40.2655 -181.496 33.3174 -181.496 26.3693C-183.139 26.3275 -184.547 26.2856 -186.073 26.2856C-187.011 29.09 -188.772 31.8525 -188.772 34.6568C-189.006 49.4739 -188.889 64.3328 -188.889 79.1498C-188.889 81.2008 -188.889 83.2517 -188.889 85.3026C-190.062 85.3026 -191.705 85.2608 -193.348 85.2608C-193.348 72.0343 -193.348 58.7659 -193.348 45.5394C-193.7 45.5394 -194.521 45.5394 -195.108 45.5394C-196.868 58.9333 -198.746 72.3273 -200.623 86.2653C-218.812 82.8331 -207.781 77.057 -214 72.997C-216.465 75.5083 -218.694 77.7686 -220.924 80.0288C-221.98 79.9869 -222.801 79.9451 -224.092 79.9032C-224.092 72.118 -224.092 64.3328 -224.092 56.5475C-224.913 56.5057 -225.735 56.5057 -226.556 56.4638C-230.429 59.2263 -234.184 61.9888 -239.581 65.8396C-239.581 61.068 -239.581 57.4684 -239.581 53.8269C-256.714 54.4966 -246.035 48.553 -251.316 47.1299C-254.953 47.2973 -259.295 47.5485 -259.295 47.4648C-260.469 45.4975 -261.642 43.4884 -261.759 41.4794C-262.111 36.4985 -261.877 31.5176 -261.877 26.5367C-262.698 26.5367 -263.52 26.5786 -264.341 26.5786C-266.453 33.9034 -268.448 41.2282 -270.678 49.1809C-273.024 47.8833 -274.081 47.2136 -276.662 45.8324C-278.657 60.9424 -280.652 75.1316 -282.529 89.3208C-283.233 89.3208 -283.82 89.279 -284.524 89.279C-284.876 86.6002 -285.228 83.9633 -285.58 81.2845C-286.402 81.2845 -287.106 81.2845 -287.927 81.2426C-288.514 84.9678 -288.983 88.6511 -289.57 92.3763C-290.391 92.3763 -291.095 92.3763 -291.917 92.3763C-292.503 89.1115 -293.09 85.8049 -293.56 82.5401C-294.616 82.5401 -295.437 82.5401 -296.611 82.5401C-296.611 87.1025 -296.611 91.6648 -296.611 96.2271C-297.784 96.2271 -299.427 96.2271 -300.718 96.2271C-300.718 85.8468 -300.718 75.5083 -300.718 65.128C-301.539 65.128 -302.243 65.1699 -302.947 65.1699C-305.059 73.2481 -307.172 81.3263 -309.166 89.4045C-309.636 89.3627 -310.105 89.3627 -310.574 89.3208C-317.967 69.774 -325.36 50.2273 -332.752 30.6386C-333.574 30.6386 -334.513 30.6386 -335.334 30.6386C-335.334 49.3064 -335.334 68.0161 -335.334 86.6839C-338.15 85.8049 -338.737 84.9259 -338.737 84.047C-340.028 60.3564 -341.319 36.6659 -342.609 12.9754C-342.727 11.5523 -343.313 10.171 -343.665 8.74792C-346.364 14.4822 -346.13 20.1328 -346.364 25.7833C-346.482 27.2902 -347.303 30.0945 -348.594 30.1364C-362.206 30.6805 -357.629 34.2801 -357.629 36.7915C-357.981 52.0689 -357.747 67.3883 -357.864 82.6657C-357.864 84.3818 -358.451 86.0979 -358.685 87.8559C-361.619 85.5119 -361.384 83.2517 -361.736 80.9915C-362.088 78.815 -362.91 76.6384 -363.614 74.4201C-365.374 74.5038 -367.017 74.5456 -368.66 74.5875C-368.66 79.5265 -368.66 84.4655 -368.66 90.7021C-390.251 81.2008 -375.583 70.9879 -384.149 62.0307C-384.149 75.2153 -384.149 88.4418 -384.149 101.627C-384.501 104.431 -384.97 107.235 -385.44 110.04C-386.261 110.04 -386.965 110.04 -387.787 110.04C-388.256 107.235 -388.608 104.431 -389.077 101.627C-388.96 94.0924 -386.965 86.5583 -390.368 79.1498C-392.011 79.1498 -393.536 79.1917 -395.179 79.1917C-395.883 80.8241 -396.587 82.4564 -397.174 84.0888C-398.23 84.047 -399.286 84.047 -400.46 84.0051C-400.46 71.1134 -400.46 58.2218 -400.46 45.3301C-401.633 45.3301 -402.455 45.3301 -403.745 45.3301C-403.745 49.0972 -403.745 52.9061 -403.745 56.6731C-404.567 56.6731 -405.271 56.6731 -405.858 56.6731C-407.735 52.5294 -409.613 48.3437 -411.607 44.2C-412.898 44.2419 -414.306 44.2837 -415.597 44.3674C-415.597 49.7669 -415.597 55.2081 -415.597 60.6076C-416.419 60.6076 -417.123 60.6076 -417.827 60.6076C-419.822 46.0835 -421.934 31.5176 -424.046 16.9936C-425.102 16.9936 -426.158 17.0354 -427.449 17.0354C-427.449 32.4803 -427.449 47.9252 -427.449 63.3701C-434.372 55.7941 -425.219 47.5485 -437.423 40.2655C-438.597 52.8223 -438.362 65.3792 -438.714 77.8941C-438.831 80.2799 -440.943 82.6657 -442.117 85.0515C-442.821 83.2936 -443.408 81.4937 -444.112 79.7358C-456.785 87.3536 -453.265 95.3062 -453.499 103.05C-455.142 102.589 -456.667 102.087 -458.31 101.627C-458.31 86.1816 -458.31 70.7367 -458.31 55.2919C-459.132 55.2919 -460.422 55.2919 -461.479 55.2919C-463.356 61.6121 -465.116 67.9742 -466.876 74.2945C-467.346 74.2945 -467.815 74.2945 -468.167 74.2945C-468.871 71.532 -469.575 68.8114 -470.162 66.0489C-470.866 66.0489 -471.453 66.0907 -472.157 66.0907C-472.626 69.3555 -473.096 72.6621 -473.565 75.9269C-474.504 76.0943 -475.56 76.2617 -476.499 76.4292C-477.789 75.1735 -479.08 73.9178 -480.371 72.704C-481.896 73.0388 -483.539 73.4155 -484.713 73.7504C-484.713 77.0989 -484.713 80.4473 -484.713 83.7958C-485.886 83.7958 -486.825 83.8377 -487.881 83.8377C-490.932 67.5138 -494.1 51.1481 -497.151 34.8242C-498.09 34.8242 -499.263 34.8661 -500.085 34.8661C-500.085 46.2091 -500.085 57.5521 -500.085 68.8532C-500.906 68.8532 -501.728 68.8532 -502.901 68.8532C-502.901 64.1653 -502.901 59.5193 -502.901 55.6686C-509.472 54.1617 -513.462 53.1572 -518.742 51.9434C-518.742 63.0771 -518.742 74.0015 -518.742 84.9678C-522.028 78.1871 -525.079 71.3646 -528.365 64.1235C-533.762 69.8159 -525.196 75.9687 -538.221 80.824C-538.221 68.1417 -538.221 55.4593 -538.221 42.7769C-541.507 46.0417 -538.339 50.604 -543.15 52.3619C-552.537 55.7941 -552.068 59.4775 -552.42 63.3701C-552.42 69.0206 -552.42 74.6712 -552.42 80.5311C-573.19 78.9824 -559.695 73.0388 -567.44 69.4811C-568.144 73.2062 -568.848 76.5129 -569.552 79.7776C-570.96 79.7776 -572.251 79.7358 -573.659 79.7358C-574.95 65.0443 -576.241 50.3528 -577.297 37.796C-583.986 53.7432 -591.613 71.6994 -599.24 89.6557C-600.179 89.6138 -601.118 89.572 -602.056 89.572C-602.995 87.1025 -603.817 84.5911 -604.755 82.1216C-606.516 82.1216 -608.276 82.1216 -610.036 82.0797C-610.505 89.0697 -610.975 96.0597 -611.444 103.091C-612.383 103.05 -613.204 103.008 -614.143 102.966C-614.612 102.547 -614.964 102.129 -615.434 101.668C-615.786 95.097 -612.265 88.4 -617.546 81.9542C-619.189 81.9542 -620.832 81.996 -622.357 81.996C-622.357 87.228 -622.357 92.46 -622.357 97.6502C-623.53 97.6502 -624.821 97.6083 -625.995 97.6083C-625.995 93.7994 -625.995 89.9905 -625.995 85.7212C-631.744 86.4746 -635.265 86.9769 -639.606 87.5629C-641.249 84.7167 -642.775 82.289 -644.183 79.8614C-645.591 79.9032 -646.999 79.9451 -648.29 79.9869C-648.994 83.9632 -649.698 87.9814 -650.637 93.2553C-657.091 86.642 -647.703 80.5311 -661.902 75.7595C-661.902 78.8987 -661.902 82.0379 -661.902 85.1352C-662.723 85.1352 -663.427 85.0934 -664.249 85.0934C-664.718 82.7076 -665.07 80.3218 -665.539 77.936C-666.713 77.8941 -667.769 77.8523 -668.942 77.8104C-672.111 83.461 -675.162 89.0697 -678.33 94.8458C-682.085 94.3017 -685.253 93.8413 -689.36 93.2553C-690.768 95.2225 -691.824 96.8131 -692.998 98.4036C-693.819 97.9432 -694.758 97.4409 -695.579 96.9805C-698.982 97.399 -702.385 97.7757 -704.028 97.985C-707.783 96.3526 -710.6 93.9669 -714.472 93.6739C-721.16 93.1716 -722.921 88.107 -732.66 91.2462C-737.823 85.4701 -746.155 89.4883 -750.496 90.9951C-762.935 95.3481 -773.848 98.3617 -783.705 98.9896C-787.46 97.6083 -791.215 96.1852 -795.908 94.4273C-798.021 95.7667 -799.429 96.6456 -800.954 97.5665C-814.566 95.0551 -818.321 95.2644 -833.811 97.1479C-843.667 98.3199 -854.58 99.45 -864.555 99.1151C-887.202 98.3617 -909.497 98.7803 -931.91 99.8267C-938.129 100.12 -944.7 100.036 -950.92 99.7011C-963.945 98.9896 -976.735 97.5246 -989.995 99.8686C-992.929 100.413 -998.327 99.2826 -1002.43 98.9059C-1002.43 99.8267 -1002.43 100.748 -1002.43 101.627C-1002.43 102.087 -1002.43 102.547 -1002.43 103.008C-1002.43 103.468 -1002.43 103.929 -1002.43 104.389C-983.659 106.524 -965.236 106.607 -946.109 104.808C-937.777 104.012 -928.39 104.431 -919.589 104.682C-915.599 104.808 -909.967 105.394 -908.207 106.44C-903.63 109.202 -897.411 108.282 -891.544 107.905C-876.641 106.9 -861.738 105.728 -846.836 104.682C-838.622 104.096 -832.285 104.64 -828.178 107.821C-826.535 109.077 -817.617 110.626 -816.209 110.207C-805.413 107.026 -791.919 111.212 -781.123 108.282C-779.715 107.905 -774.317 109.37 -773.026 109.621C-766.925 107.654 -761.761 105.98 -753.899 103.426C-749.206 108.282 -745.803 111.881 -742.165 115.648C-741.578 114.016 -741.109 112.384 -740.053 109.537C-738.058 111.839 -737.119 112.844 -735.946 114.267C-730.9 114.1 -723.859 109.956 -720.222 116.444C-718.696 113.304 -717.992 111.923 -717.288 110.5C-716.349 110.291 -715.293 110.04 -714.355 109.83C-714.12 110.751 -713.885 111.672 -713.768 112.593C-712.712 112.342 -711.89 112.091 -710.717 111.839C-710.717 110.709 -710.717 109.579 -710.717 108.491C-708.722 111.379 -706.61 114.267 -703.559 118.704C-700.743 115.23 -699.1 113.137 -696.284 109.663C-695.462 113.89 -694.993 116.611 -694.523 118.955C-686.896 115.774 -679.503 112.76 -671.055 109.244C-668.238 113.346 -665.774 117.113 -663.075 120.922C-662.254 120.88 -661.315 120.838 -660.494 120.755C-660.494 114.895 -660.494 108.993 -660.494 103.133H-658.851L-657.208 103.175C-655.096 109.077 -661.432 115.397 -648.759 120.922C-648.759 117.155 -648.759 113.43 -648.759 109.663C-648.407 109.663 -647.821 109.663 -647.234 109.663C-645.239 115.23 -643.362 120.838 -641.249 126.866C-637.142 122.094 -633.739 118.118 -630.219 114.141C-628.341 119.625 -626.464 125.108 -624.586 130.549C-623.765 130.549 -622.944 130.549 -622.122 130.549C-622.122 125.903 -622.122 121.257 -622.122 116.611C-621.301 116.611 -620.597 116.611 -619.775 116.569C-617.663 121.592 -615.551 126.615 -613.321 131.637C-610.975 127.368 -611.444 123.182 -610.857 118.955C-610.271 115.481 -608.393 112.007 -607.102 108.533C-604.99 113.848 -613.204 119.918 -597.128 124.312C-594.781 121.341 -592.434 118.369 -590.087 115.439C-589.031 115.481 -587.975 115.565 -587.154 115.606C-587.154 122.513 -587.154 129.419 -587.154 136.283C-575.302 131.009 -583.751 124.857 -578.001 118.662C-575.771 127.535 -573.542 135.739 -571.43 143.943C-570.256 143.901 -569.083 143.901 -567.909 143.859C-567.909 139.339 -567.909 134.86 -567.909 130.34C-566.736 130.34 -565.445 130.34 -564.272 130.382C-564.272 136.367 -564.272 142.352 -564.272 148.338C-563.098 148.338 -561.808 148.338 -560.634 148.338C-560.634 141.432 -560.634 134.525 -560.634 127.619C-559.813 127.619 -558.639 127.619 -557.701 127.619C-557.231 130.005 -556.879 132.391 -556.41 134.777C-553.241 132.14 -553.711 129.503 -553.124 126.908C-552.303 123.141 -550.895 119.373 -549.604 115.606C-549.604 125.568 -549.604 135.53 -549.604 145.492C-547.961 145.492 -546.201 145.492 -544.441 145.492C-543.619 130.884 -542.915 116.276 -542.094 101.71C-541.624 100.245 -541.155 98.7803 -540.686 97.3153C-539.982 97.3153 -539.278 97.3153 -538.573 97.3153C-538.221 98.7384 -537.869 100.162 -537.4 101.585C-536.579 115.816 -541.507 130.13 -531.298 144.236C-530.125 142.018 -530.125 139.799 -530.125 137.581C-530.125 127.117 -530.242 116.611 -530.007 106.147C-530.007 104.18 -528.951 102.171 -528.365 100.203C-527.66 100.496 -526.839 100.748 -526.252 101.041C-525.9 101.208 -525.9 101.459 -525.666 101.668C-524.727 108.993 -523.671 116.36 -522.732 123.685C-521.793 123.685 -520.855 123.685 -519.916 123.685C-517.686 118.202 -515.574 112.677 -513.345 107.193C-512.171 107.235 -511.232 107.277 -509.942 107.277C-509.942 116.737 -509.942 126.238 -509.942 136.367C-505.483 130.549 -501.493 125.568 -497.973 121.09C-491.871 128.247 -485.534 135.739 -479.315 143.231C-474.621 140.72 -472.861 138.334 -472.744 135.907C-472.274 130.214 -472.861 124.48 -472.392 118.787C-472.039 115.481 -470.162 112.174 -468.989 108.826C-468.989 124.647 -468.989 140.469 -468.989 156.332C-468.167 156.332 -466.994 156.332 -466.055 156.332C-464.06 145.366 -462.065 134.4 -459.953 123.434C-459.014 123.434 -457.958 123.434 -457.137 123.434C-457.137 130.716 -457.137 138.041 -457.137 145.324C-455.494 145.324 -454.321 145.324 -452.912 145.324C-451.739 135.404 -450.566 125.484 -449.392 115.565C-446.224 120.964 -443.056 126.405 -439.653 132.223C-437.892 121.676 -436.25 111.63 -434.49 101.585C-434.02 99.3663 -433.551 97.1061 -433.081 94.8877C-432.377 94.9295 -431.556 94.9295 -430.852 94.9714C-430.5 97.1898 -430.148 99.45 -429.678 101.668C-429.678 118.16 -429.678 134.609 -429.678 151.1C-424.398 142.352 -427.684 133.479 -419.704 124.647C-413.25 117.532 -415.597 109.454 -413.954 101.794L-412.898 101.836H-411.842C-411.607 109.119 -411.607 116.402 -410.786 123.685C-410.551 125.568 -408.909 128.749 -406.092 129.042C-397.526 129.963 -399.756 132.014 -399.638 133.856C-399.404 138.669 -399.521 143.441 -399.521 148.254C-398.582 148.212 -397.644 148.212 -396.705 148.17C-395.883 147.208 -395.179 146.245 -394.358 145.324C-393.067 145.366 -391.659 145.408 -390.486 145.45C-390.486 157.421 -390.486 169.35 -390.486 181.32C-388.491 181.32 -386.379 181.32 -384.736 181.32C-384.736 164.452 -384.736 147.584 -384.736 130.716C-383.093 130.716 -381.45 130.758 -379.807 130.758C-379.807 144.362 -379.807 157.965 -379.807 171.61C-378.986 171.652 -378.047 171.652 -377.226 171.694C-373.588 162.946 -369.95 154.198 -366.313 145.575C-365.374 146.078 -364.318 146.789 -361.032 148.673C-358.92 141.808 -357.277 136.116 -355.517 130.465C-355.048 130.465 -354.578 130.465 -354.109 130.465C-353.64 134.191 -353.053 137.916 -352.584 141.641C-342.023 128.456 -346.599 115.104 -346.012 101.794C-345.543 98.9896 -345.191 96.1852 -344.721 93.3809C-343.9 93.3809 -343.196 93.3809 -342.375 93.3809C-342.023 96.1852 -341.553 99.0314 -341.201 101.836C-340.614 114.686 -339.91 127.494 -339.441 140.343C-337.564 140.343 -335.803 140.343 -333.691 140.343C-333.691 130.214 -333.691 120.043 -333.691 109.872C-332.518 109.872 -331.227 109.872 -330.054 109.872C-330.054 121.801 -330.054 133.688 -330.054 145.534C-328.411 145.534 -327.12 145.575 -325.712 145.575C-324.186 138.711 -322.778 131.847 -321.135 124.982C-320.314 124.982 -319.493 124.982 -318.671 124.982C-318.671 135.446 -318.671 145.952 -318.671 156.416C-317.498 156.416 -316.911 156.416 -315.972 156.416C-315.151 154.156 -314.329 151.938 -313.508 149.677C-312.452 149.719 -311.279 149.719 -310.105 149.761C-310.105 156.039 -310.105 162.318 -310.105 168.596C-309.753 168.554 -309.166 168.554 -308.697 168.512C-306.937 164.452 -305.177 160.392 -303.416 156.332C-301.891 156.374 -300.365 156.416 -299.075 156.458C-299.075 160.518 -299.075 164.62 -299.075 168.68C-297.432 168.68 -296.258 168.68 -294.968 168.638C-294.968 162.695 -294.968 156.709 -294.968 149.342C-292.151 151.561 -291.095 152.314 -289.805 153.235C-288.279 152.105 -287.106 151.142 -285.815 150.096C-284.524 151.268 -283.468 152.23 -282.412 153.193C-281.004 153.151 -279.596 153.109 -278.07 153.068C-274.198 138.92 -277.836 124.689 -276.075 110.542C-274.902 112.928 -272.907 115.355 -272.79 117.741C-272.438 127.954 -272.672 138.167 -272.672 148.38C-259.295 135.739 -268.448 122.555 -263.168 108.323C-257.066 119.708 -266.922 130.172 -253.897 139.883C-253.897 127.159 -253.897 114.434 -253.897 101.752C-253.897 96.3108 -253.897 90.8695 -253.897 85.4282C-252.255 85.4282 -250.612 85.4282 -248.969 85.4701C-248.969 90.9114 -248.969 96.3526 -248.969 101.794C-248.969 116.318 -248.969 130.884 -248.969 145.408C-247.796 145.408 -246.153 145.408 -244.745 145.45C-243.102 137.874 -241.459 130.34 -239.933 122.764C-230.429 128.54 -240.051 135.153 -226.204 141.976C-226.204 133.981 -226.204 127.494 -226.204 121.006C-222.919 126.447 -223.271 131.888 -222.449 137.288C-221.51 142.478 -227.026 148.003 -215.291 152.775C-215.291 147.584 -215.291 142.436 -215.291 137.246C-203.909 147.919 -203.205 159.053 -203.44 170.187C-202.031 170.187 -200.623 170.145 -199.45 170.145C-199.45 163.322 -199.45 156.5 -199.45 148.505C-196.164 150.807 -194.521 151.812 -191.47 153.821C-189.828 151.854 -188.654 151.059 -188.654 150.221C-187.363 134.065 -186.073 117.95 -184.899 101.794C-183.374 102.254 -181.848 102.673 -180.205 103.133C-179.501 117.323 -184.782 131.637 -172.93 145.701C-172.93 135.614 -172.93 125.526 -172.93 115.439C-171.757 115.439 -170.466 115.439 -169.292 115.439C-169.292 129.67 -169.292 143.859 -169.292 158.09C-167.65 158.09 -165.772 158.132 -164.012 158.132C-162.252 142.938 -160.374 127.787 -158.614 112.593C-156.971 112.593 -155.446 112.635 -153.451 112.635C-153.451 124.103 -153.451 135.572 -153.451 147.04C-153.099 147.04 -152.278 147.04 -151.691 147.04C-150.165 145.115 -148.64 143.19 -147.114 141.264C-145.706 141.306 -144.416 141.39 -142.89 141.432C-142.89 148.338 -142.89 155.202 -142.89 162.109C-141.717 162.109 -140.074 162.109 -138.431 162.109C-138.431 152.44 -138.431 142.813 -138.431 133.144C-137.61 133.144 -136.436 133.144 -135.38 133.102C-134.911 135.488 -134.441 137.832 -133.972 140.218C-132.916 140.218 -131.977 140.218 -130.804 140.218C-130.804 136.032 -130.804 131.847 -130.804 127.661C-129.63 127.661 -128.339 127.661 -127.166 127.703C-127.166 142.729 -127.166 157.797 -127.166 172.824C-125.523 172.824 -123.88 172.824 -122.355 172.824C-121.416 159.262 -120.595 145.659 -119.421 132.098C-119.187 129.461 -117.427 126.782 -116.136 124.145C-116.136 133.144 -116.136 142.143 -116.136 151.142C-115.314 151.142 -114.141 151.142 -113.085 151.142C-109.212 143.315 -105.34 135.53 -101.233 127.117C-100.529 131.763 -99.825 135.907 -99.2382 140.092C-98.0648 140.092 -96.8914 140.05 -95.7179 140.05C-95.7179 130.926 -95.7179 121.801 -95.7179 112.677C-94.8965 112.677 -93.7231 112.677 -92.4323 112.677C-92.4323 127.787 -92.4323 142.897 -92.4323 158.007C-91.6108 158.048 -90.4374 158.048 -89.3813 158.09C-86.3304 151.142 -83.3968 144.152 -80.3459 137.204C-79.4071 137.246 -78.5858 137.288 -77.647 137.372C-77.1776 138.711 -76.8256 140.092 -76.4736 141.432C-75.1827 145.157 -74.0093 148.84 -72.7185 152.565C-71.5451 152.523 -70.3716 152.523 -69.1982 152.482C-69.1982 145.199 -69.1982 137.958 -69.1982 130.675C-62.2749 145.659 -71.1931 160.895 -57.8159 175.712C-57.8159 170.187 -57.8159 164.62 -57.8159 158.132C-54.5302 159.765 -53.4741 160.392 -50.4232 161.983C-50.4232 151.352 -50.6579 141.85 -50.1885 132.349C-50.0712 129.963 -47.8417 127.619 -46.5508 125.233C-44.556 137.246 -53.3568 149.761 -31.0615 161.899C-24.3729 145.324 -18.2709 129.796 -12.1691 114.937C-12.1691 125.15 -12.1691 136.116 -12.1691 147.124C-11.3477 147.124 -10.8784 147.124 -10.1743 147.124C-8.17944 142.52 -6.18457 137.916 -4.30707 133.312C5.66711 134.986 2.61621 138.251 3.32025 141.097C4.14166 144.487 5.19775 147.877 6.13654 151.268C8.01404 151.226 9.77417 151.184 11.769 151.142C11.769 140.762 11.769 130.382 11.769 120.001C12.9424 120.001 14.2333 120.043 15.4067 120.043C15.4067 135.823 15.4067 151.603 15.4067 167.424C19.8658 163.49 21.1566 159.513 22.5647 155.537C23.0341 154.03 23.6208 152.482 24.2075 150.975C24.9116 151.268 25.7329 151.519 26.3197 151.812C26.6718 151.979 26.7891 152.23 26.9064 152.44C29.3706 158.927 31.8348 165.415 34.4164 171.903C35.3551 171.861 36.2939 171.861 37.2327 171.819C37.702 169.852 38.0541 167.927 38.5234 165.959C39.1101 165.959 39.5795 165.959 40.1663 165.959C41.3397 167.801 42.6304 169.601 43.8038 171.442C45.3293 171.442 46.8549 171.401 48.4977 171.401C48.4977 158.3 48.4977 145.241 48.4977 132.14C49.671 132.14 50.7272 132.14 51.9006 132.14C53.8955 146.245 55.8903 160.351 57.8851 174.498C58.9412 174.498 60.3494 174.498 61.1708 174.498C61.1708 155.788 61.1708 137.037 61.1708 118.327C66.4513 126.489 62.3442 134.86 68.446 142.938C78.0682 131.637 63.1656 119.373 83.9354 107.361C83.9354 121.006 83.9354 133.437 83.9354 145.868C85.1089 145.868 86.3998 145.868 87.5731 145.868C87.5731 142.562 87.5731 139.255 87.5731 135.907C88.3945 135.907 88.9813 135.865 89.6853 135.865C91.9149 138.795 94.2617 141.725 96.4913 144.655C97.1953 144.613 97.8994 144.571 98.7208 144.529C99.1902 140.887 99.6595 137.288 100.246 133.646C102.006 133.646 103.649 133.646 105.409 133.646C107.639 143.65 109.751 153.612 111.981 163.615C112.802 163.615 113.741 163.615 114.562 163.615C114.562 158.467 114.562 153.319 114.562 148.17C116.557 148.129 118.317 148.045 120.195 148.003C121.368 153.151 122.659 158.341 123.832 163.49C124.536 163.448 125.24 163.448 125.945 163.406C127.939 153.821 129.817 144.236 131.812 134.609C132.046 134.609 132.281 134.609 132.516 134.609C134.041 141.473 135.567 148.338 137.092 155.16C138.97 155.119 140.73 155.077 142.842 155.035C142.842 146.915 142.842 138.795 142.842 130.675C143.663 130.675 144.837 130.716 146.128 130.716C146.128 136.744 146.128 142.813 146.128 148.84C147.771 148.882 149.296 148.924 150.939 149.008C153.168 140.553 155.515 132.056 157.745 123.601C158.566 123.601 159.388 123.643 160.092 123.643C162.086 133.688 164.199 143.692 166.193 153.737C166.78 153.737 167.25 153.737 168.071 153.695C168.071 136.409 168.071 119.122 168.071 101.836C168.071 98.6129 168.071 95.39 168.071 92.2089C169.714 95.4318 171.239 98.6547 172.882 101.878C172.882 107.821 172.413 113.723 172.765 119.666C173.117 125.568 170.887 131.554 174.76 137.874C179.805 136.451 182.739 135.697 188.371 134.065C188.371 147.459 188.371 159.513 188.371 171.61C189.545 171.61 190.836 171.61 192.009 171.61C192.009 164.829 192.009 158.048 192.009 151.226C193.183 151.226 194.239 151.184 195.412 151.184C198.698 157.211 201.983 163.197 205.269 169.224C214.07 160.351 209.845 151.268 210.667 142.311C211.371 133.395 210.784 124.48 210.784 115.565C212.075 115.565 213.366 115.565 214.656 115.565C214.656 126.908 214.422 138.251 214.774 149.635C214.891 152.063 216.886 154.491 217.942 156.918C219.468 156.835 220.993 156.793 222.519 156.709C222.519 148.003 222.519 139.297 222.519 130.591C229.442 144.278 229.442 144.278 237.538 147.417C237.538 132.433 237.538 117.867 237.538 103.301L239.416 103.217L241.294 103.259C241.294 121.508 241.294 139.757 241.294 158.048C243.288 158.09 245.518 158.09 247.63 158.132C251.033 145.45 247.63 132.558 249.86 119.834C251.15 119.834 252.324 119.876 253.967 119.876C253.967 125.317 253.967 130.758 253.967 136.2C254.788 136.2 255.962 136.158 256.783 136.116C256.783 134.316 256.783 132.558 256.783 130.758C267.344 130.256 263.824 133.144 264.293 134.818C266.288 142.101 267.931 149.426 269.808 157.379C272.155 153.988 274.032 151.268 275.793 148.505C279.196 155.202 282.599 161.941 285.649 167.926C288.7 161.774 291.986 155.035 295.272 148.296C296.562 146.287 298.675 144.236 298.909 142.227C299.496 138.292 299.144 134.358 299.144 130.423C300.435 130.423 301.608 130.423 303.251 130.423C303.251 135.111 303.251 139.799 303.251 144.487C303.603 144.487 304.307 144.445 304.894 144.445C306.771 139.841 308.532 135.279 310.526 130.675C310.526 144.696 310.526 158.76 310.526 172.782C311.7 172.782 313.343 172.782 314.868 172.782C316.511 159.22 318.036 145.659 319.679 132.098C320.735 132.098 321.557 132.098 322.848 132.098C322.848 143.357 322.848 154.616 322.848 165.876C323.2 165.876 324.021 165.834 324.608 165.834C325.898 159.388 327.307 152.984 328.597 146.58C329.771 146.58 330.944 146.58 332.118 146.58C333.174 148.045 334.113 149.51 334.582 150.096C337.633 146.58 341.036 142.645 344.556 138.711C345.143 136.409 345.73 134.065 346.316 131.763C350.658 142.98 353.826 154.156 357.112 165.29C357.229 165.583 358.168 165.834 359.341 166.42C360.163 164.118 360.867 162.276 361.454 160.392C362.51 160.434 363.566 160.434 364.739 160.476C364.739 172.405 364.739 184.334 364.739 196.221C368.025 193.542 367.79 190.822 368.025 188.143C369.198 176.13 369.902 164.076 372.015 152.063C373.305 144.864 376.943 137.706 379.525 130.549C381.519 137.413 383.397 144.278 385.392 151.184C385.978 151.184 386.682 151.226 387.035 151.226C387.035 147.04 387.035 142.855 387.035 138.669C388.677 138.669 389.851 138.669 391.494 138.627C391.494 145.91 391.494 153.235 391.494 160.518C392.667 160.518 393.958 160.476 395.131 160.476C395.131 150.054 395.131 139.632 395.131 129.252C402.055 136.367 393.489 144.194 405.692 152.272C405.692 134.609 405.692 118.202 405.692 101.836C405.692 97.7339 405.692 93.6739 405.692 89.572C407.335 89.572 408.978 89.6138 410.621 89.6138C410.621 93.6739 410.621 97.7339 410.621 101.794C410.621 117.783 410.621 133.772 410.621 149.761C411.442 149.761 412.146 149.761 412.85 149.803C413.672 148.296 414.61 146.747 415.901 144.445C417.661 146.454 418.6 147.501 419.539 148.505C420.595 148.422 421.651 148.338 422.824 148.254C422.824 140.636 422.824 132.977 422.824 125.359C423.176 125.359 423.763 125.401 424.233 125.401C426.227 136.283 428.222 147.166 430.217 158.048C430.921 158.007 431.508 158.007 432.212 157.965C433.033 156.96 433.855 155.956 434.676 154.993C435.615 154.993 436.671 155.035 437.492 155.035C437.492 161.606 437.492 168.22 437.492 174.791C438.666 174.833 439.605 174.875 440.661 174.875C442.773 173.284 444.768 171.735 446.88 170.145C447.701 170.187 448.523 170.27 449.344 170.312C449.344 178.474 449.344 186.636 449.344 194.798C461.196 170.312 452.982 145.617 460.257 121.131C461.9 136.158 463.66 151.184 465.42 166.21C479.854 144.906 474.456 123.308 474.925 101.794C475.394 99.8267 475.864 97.8595 476.333 95.8922C477.037 95.8922 477.741 95.8922 478.445 95.8922C478.915 97.8595 479.502 99.8267 479.971 101.794C479.971 124.145 479.971 146.496 479.971 168.889C481.144 168.889 482.318 168.889 483.491 168.889C484.782 156.709 486.19 144.529 487.481 132.349C495.812 128.875 488.537 123.141 501.914 120.127C504.848 119.457 502.97 116.151 503.322 114.058C506.138 125.484 506.021 136.869 506.139 148.254C506.139 151.226 506.373 154.198 507.195 157.128C511.771 172.656 517.169 188.143 521.276 203.672C522.801 209.406 521.628 215.224 521.628 221C522.919 221 523.975 221 525.618 221C525.618 211.331 525.618 201.662 525.618 191.994C525.97 191.994 527.026 191.994 527.73 191.952C528.786 193.04 529.959 194.128 531.016 195.217C531.837 195.175 532.658 195.133 533.48 195.091C535.122 177.26 536.765 159.472 538.291 141.641C539.347 141.641 540.286 141.641 541.459 141.683C541.459 151.226 541.459 160.769 541.459 170.312C541.811 170.312 542.28 170.27 542.632 170.229C547.561 158.886 552.607 147.543 557.535 136.2C558.474 136.241 559.295 136.241 560.469 136.283C560.469 144.864 560.469 153.444 560.469 162.025C561.642 162.025 562.464 162.025 563.754 162.025C563.754 144.194 563.754 126.405 563.754 108.575C564.576 108.575 565.28 108.575 565.984 108.575C567.979 126.405 569.974 144.236 571.851 162.067C573.025 162.067 574.315 162.067 575.489 162.025C575.489 154.156 575.489 146.329 575.489 137.706C592.151 143.692 585.58 150.431 586.402 156.542C587.34 162.946 586.519 169.35 586.519 175.795C587.81 175.795 589.335 175.795 590.509 175.795C590.509 166.587 590.509 157.379 590.509 148.17C591.682 148.17 592.504 148.17 593.442 148.129C595.789 155.914 598.136 163.657 600.483 171.442C602.36 171.401 604.003 171.317 606.115 171.275C606.115 161.355 606.115 151.435 606.115 141.515C607.289 141.515 608.932 141.557 610.223 141.557C610.223 156.625 610.223 171.694 610.223 186.762C611.044 186.762 611.396 186.762 611.983 186.762C613.508 179.814 614.916 172.866 616.442 165.876C617.85 165.917 619.141 165.959 620.549 165.959C621.018 168.345 621.488 170.731 621.957 173.117C622.778 173.117 623.717 173.117 624.538 173.117C624.891 170.27 625.36 167.382 625.712 164.536C626.768 164.536 627.707 164.536 628.88 164.536C628.88 168.764 628.88 172.949 628.88 177.177C629.232 177.177 629.936 177.177 630.406 177.135C634.865 164.243 639.207 151.352 643.666 138.46C645.191 138.502 646.834 138.544 648.359 138.627C648.359 142.436 648.359 146.203 648.359 150.012C649.533 150.012 650.823 150.012 651.997 150.012C651.997 139.13 651.997 128.247 651.997 117.323C653.17 122.01 655.165 126.698 655.4 131.386C655.869 141.222 655.635 151.059 655.635 160.853C656.573 160.853 657.512 160.853 658.451 160.853C660.563 150.305 662.558 139.716 664.67 129.168C665.257 129.168 665.961 129.168 666.548 129.21C667.017 132.056 667.604 134.944 668.073 137.79C669.246 137.79 670.42 137.79 671.593 137.748C671.593 130.758 671.593 123.81 671.593 116.82C672.767 116.82 674.41 116.82 675.7 116.862C677.109 126.029 678.517 135.153 679.925 144.32C680.511 144.32 681.216 144.32 681.802 144.32C682.272 141.934 682.741 139.548 683.093 137.162C683.68 137.162 684.384 137.162 684.971 137.162C686.965 150.138 689.078 163.155 691.072 176.13C704.802 160.351 700.343 143.985 701.985 127.87C703.394 127.87 704.802 127.912 706.092 127.912C706.092 150.18 706.092 172.489 706.092 194.756C709.73 188.143 706.797 181.362 710.199 175C717.24 161.355 709.965 147.543 719.47 133.772C726.158 124.103 720.526 113.346 720.291 103.091C720.76 102.673 720.76 102.212 720.408 101.794C720.878 98.571 721.347 95.3062 721.817 92.0833C722.755 92.0833 723.694 92.1252 724.867 92.1252C724.867 94.1343 724.867 96.1434 724.867 98.1943C724.867 118.704 724.75 139.171 724.867 159.681C724.867 161.481 724.633 164.745 725.924 164.829C743.173 166.043 735.546 170.815 735.898 173.912C736.954 182.744 736.25 191.575 736.25 200.407C737.541 200.407 738.714 200.407 740.005 200.449C740.005 198.063 740.005 195.677 740.005 193.291C740.005 170.982 740.005 148.673 740.005 126.363C740.005 119.08 740.005 111.798 740.239 104.515C740.239 103.426 742.117 102.38 743.173 101.292C743.525 101.459 743.994 101.627 744.464 101.794C741.53 114.853 747.75 127.452 760.423 139.883C760.423 136.367 760.423 132.893 760.423 129.377C760.775 129.377 761.361 129.419 761.831 129.419C763.708 149.301 765.586 169.224 767.463 189.106C768.637 189.106 769.81 189.064 770.984 189.064C770.984 165.876 770.984 142.645 770.984 119.457C772.157 119.457 773.448 119.457 774.621 119.457C774.621 145.952 774.621 172.489 774.621 198.984C779.08 190.905 781.544 182.785 782.014 174.665C782.835 162.36 782.014 150.012 782.366 137.706C782.483 135.321 784.83 132.977 786.121 130.591C788.585 138.041 779.08 146.245 798.325 153.486C798.325 148.254 798.325 143.734 798.325 139.213C799.498 141.641 801.258 144.069 801.375 146.496C801.728 154.951 801.024 163.364 801.728 171.819C802.314 179.06 804.309 186.259 805.835 193.501C807.125 193.501 808.534 193.459 809.824 193.459C809.824 167.55 809.824 141.599 809.824 115.69C810.998 115.69 812.288 115.69 813.11 115.69C813.11 118.16 813.11 120.629 813.11 123.141C813.11 145.701 812.993 168.303 813.345 190.864C813.345 194.087 815.692 197.268 816.865 200.491C818.156 200.449 819.447 200.407 820.737 200.365C820.737 198.105 820.737 195.844 820.737 193.626C820.737 176.298 820.385 158.969 821.089 141.641C821.207 137.999 825.9 134.358 828.365 130.716C829.655 141.641 830.946 152.607 832.237 163.532C832.941 163.49 833.645 163.49 834.349 163.448C836.109 158.593 837.87 153.737 839.512 148.924C841.272 155.202 843.15 161.481 844.91 167.717C845.38 167.759 845.966 167.801 846.436 167.843C847.14 165.834 847.726 163.825 848.431 161.857C849.604 161.857 850.777 161.857 852.068 161.857C853.594 166.964 855.236 172.112 856.762 177.219C859.109 169.936 858.405 162.695 859.226 155.453C860.047 148.338 855.119 141.013 864.155 133.479C876.241 139.883 866.501 146.747 873.307 152.775C874.481 150.305 874.011 147.877 874.598 145.408C875.42 141.892 876.945 138.376 878.118 134.902C879.409 153.109 880.817 171.317 882.108 189.482C882.108 189.692 881.991 189.943 882.225 190.152C883.281 191.198 884.338 192.203 885.394 193.208C886.802 193.124 888.327 193.04 889.735 192.998C889.735 185.087 889.031 177.177 889.97 169.266C890.674 162.82 885.159 156.123 897.363 149.97C901.587 147.836 901 144.278 901.118 141.39C901.587 132.935 901.235 124.522 901.47 116.067C901.47 114.518 903.113 112.969 903.934 111.463C905.694 111.505 907.454 111.588 909.097 111.63C909.097 126.991 909.097 142.352 909.097 157.714C910.271 157.714 911.913 157.714 913.204 157.672C913.204 150.012 913.204 142.394 913.204 134.735C914.026 134.735 915.082 134.693 916.021 134.693C919.306 143.776 922.592 152.816 925.995 161.899C926.933 161.857 927.872 161.857 928.694 161.816C928.694 145.952 928.694 130.047 928.694 114.183C934.795 128.666 927.051 143.441 939.724 157.797C939.724 145.534 939.724 133.27 939.724 121.048C940.897 121.006 941.836 120.964 942.892 120.922C948.76 134.023 954.627 147.082 960.494 160.183C962.019 160.183 963.545 160.141 965.07 160.141C967.3 152.147 969.764 144.152 971.994 136.158C972.698 136.158 973.402 136.158 974.223 136.158C974.223 143.943 974.223 151.728 974.223 159.513C975.396 159.513 977.039 159.513 978.565 159.513C980.208 146.664 981.733 133.856 983.493 119.876C985.723 126.112 987.6 131.177 989.478 136.241C989.83 137.162 990.299 138.083 990.651 139.004C991.355 138.962 991.942 138.92 992.646 138.878C993.233 136.158 993.819 133.437 994.406 130.758C995.11 130.8 995.697 130.8 996.401 130.842C999.335 143.524 1002.27 156.207 1005.08 168.889C1006.02 168.847 1007.2 168.847 1008.02 168.805C1008.02 146.957 1008.02 125.066 1008.02 103.217C1008.37 102.798 1008.72 102.338 1008.72 101.92L1010.6 101.878L1012.48 101.92C1012.48 124.145 1012.48 146.371 1012.48 168.596C1014.12 168.596 1016.23 168.596 1018.23 168.596C1019.17 150.556 1020.1 132.558 1021.16 114.518C1021.75 114.518 1022.33 114.56 1022.92 114.56C1024.21 120.127 1025.5 125.694 1026.79 131.261C1028.08 131.302 1029.26 131.344 1030.55 131.386C1032.89 129.67 1035.24 127.954 1037.71 126.196C1038.76 126.196 1039.94 126.196 1040.99 126.238C1042.17 135.446 1043.34 144.655 1044.51 153.863C1045.45 153.863 1046.39 153.863 1047.21 153.863C1047.21 143.901 1047.21 133.939 1047.21 123.978C1048.38 126.363 1050.26 128.707 1050.85 131.093C1052.84 139.046 1054.49 147.04 1056.25 155.035C1056.83 155.035 1057.42 154.993 1057.89 154.993C1059.41 146.036 1060.94 137.079 1062.58 128.121C1064.58 129.503 1066.57 130.842 1070.33 133.437C1070.33 129.168 1069.62 126.28 1070.68 123.434C1071.03 122.303 1075.14 121.341 1077.49 120.336C1079.6 128.707 1081.59 137.079 1083.59 145.45C1084.88 145.45 1086.29 145.45 1087.46 145.45C1087.46 133.772 1087.46 122.094 1087.46 110.416C1089.45 110.416 1091.1 110.416 1092.74 110.416C1092.74 125.359 1092.74 140.26 1092.74 155.202C1093.91 155.244 1095.09 155.244 1096.14 155.286C1098.26 149.803 1100.37 144.32 1102.48 138.795C1104.01 139.381 1105.41 139.925 1107.17 140.594C1109.05 132.223 1110.81 124.103 1112.57 115.983C1121.14 115.355 1119.73 117.657 1119.85 119.332C1120.32 124.898 1120.43 130.507 1120.67 136.074C1120.79 136.283 1120.79 136.534 1121.14 136.744C1121.37 136.953 1121.96 137.079 1122.31 137.246C1124.07 135.572 1127.12 133.898 1127.36 132.181C1127.94 125.861 1127.59 119.541 1127.59 113.221C1134.51 125.819 1127 138.669 1139.21 151.1C1139.21 142.52 1139.21 133.981 1139.21 125.401C1140.38 125.401 1142.02 125.401 1143.32 125.359C1143.32 132.014 1143.32 138.711 1143.32 145.366C1143.67 145.324 1144.14 145.282 1144.49 145.241C1147.89 134.986 1151.41 124.731 1154.82 114.476C1155.87 114.518 1157.04 114.518 1158.1 114.56C1159.98 120.336 1161.97 126.154 1163.97 131.93C1164.55 131.93 1164.91 131.93 1165.73 131.93C1165.73 121.969 1165.73 111.965 1165.73 102.003C1165.73 100.203 1166.08 98.4454 1166.31 96.6875C1167.72 98.4873 1169.01 100.245 1170.42 102.045C1170.07 102.464 1170.07 102.882 1170.42 103.343C1170.3 114.309 1167.25 125.359 1175.82 136.618C1177.35 134.944 1178.4 133.772 1179.46 132.642C1180.28 132.684 1181.33 132.767 1182.16 132.809C1182.16 137.999 1182.16 143.148 1182.16 148.338C1183.33 148.38 1184.74 148.38 1186.15 148.422C1187.2 144.948 1188.49 141.432 1189.2 137.958C1190.72 131.009 1191.78 124.019 1193.07 117.071C1197.06 119.959 1200.93 122.889 1207.03 127.326C1207.97 121.215 1208.68 116.569 1209.38 111.923C1215.72 120.964 1204.8 130.758 1222.41 138.962C1226.75 131.679 1231.21 124.354 1236.49 115.481C1239.42 120.713 1241.53 124.271 1243.53 127.787C1244.94 127.745 1246.23 127.661 1247.87 127.619C1247.87 121.508 1247.87 115.397 1247.87 109.244C1247.87 109.286 1248.22 109.286 1248.57 109.328C1251.51 119.206 1254.44 129.042 1257.49 138.92C1259.25 138.92 1261.13 138.92 1262.89 138.92C1265.35 130.8 1267.82 122.68 1270.16 114.602C1274.51 114.727 1276.62 114.644 1276.85 114.811C1279.55 117.699 1282.13 120.587 1285.77 124.815C1288.12 121.508 1289.64 119.457 1291.87 116.318C1294.57 128.163 1294.34 128.163 1310.18 127.954C1310.18 123.182 1310.18 118.369 1310.18 113.597C1311 113.597 1312.41 113.555 1313.58 113.555C1315.58 116.737 1317.57 119.918 1319.57 123.057C1321.56 125.066 1323.56 127.075 1326.02 129.545C1328.01 125.317 1329.66 121.885 1331.42 118.118C1335.99 119.959 1339.4 121.341 1342.68 122.722C1343.03 123.978 1343.27 125.233 1343.62 126.531C1344.56 126.531 1345.73 126.531 1346.55 126.489C1346.55 120.211 1346.55 113.932 1346.55 107.654C1347.73 107.612 1349.02 107.57 1350.19 107.57C1352.19 112.551 1354.18 117.532 1356.29 122.806C1357.59 122.052 1358.41 121.508 1359.35 121.006C1359.58 120.922 1360.4 121.006 1360.87 121.006C1362.04 122.513 1363.1 124.061 1364.27 125.61C1365.21 125.568 1366.15 125.526 1367.09 125.484C1369.32 120.88 1371.55 116.318 1373.78 111.714C1377.06 116.569 1380.12 121.424 1383.4 126.28C1384.34 126.28 1385.28 126.28 1386.1 126.28C1386.1 121.717 1386.1 117.155 1386.1 112.551C1387.74 112.509 1388.8 112.467 1390.09 112.425C1394.43 116.695 1398.89 120.964 1403.35 125.233C1420.72 121.508 1404.87 113.472 1418.96 108.868C1419.78 112.425 1420.6 115.774 1421.3 119.122C1422.83 119.08 1424.35 119.08 1425.88 119.039C1426.82 115.732 1427.76 112.425 1428.46 109.998C1433.15 114.058 1438.44 118.536 1444.54 123.852C1449.58 120.043 1453.22 117.281 1458.5 113.388C1460.97 116.234 1462.37 117.867 1464.84 120.755C1465.78 116.653 1466.36 114.1 1467.18 110.04C1469.41 112.635 1470.35 113.723 1471.17 114.769C1473.87 114.225 1476.45 113.723 1479.27 113.137C1481.03 115.355 1482.56 117.197 1484.67 119.792C1490.77 118.118 1495.23 116.904 1499.34 115.816C1500.04 116.485 1501.1 117.616 1502.86 119.332C1509.9 116.695 1515.65 114.518 1521.05 112.509C1524.92 114.602 1528.56 116.611 1532.19 118.62C1533.37 118.536 1534.42 118.494 1535.6 118.411C1535.6 114.937 1535.6 111.463 1535.6 107.947C1536.42 107.989 1537.12 107.989 1537.94 108.03C1538.65 110.877 1539.47 113.723 1540.29 117.03C1552.61 112.97 1560.24 108.951 1558.48 103.426L1560 103.384L1561.53 103.426C1564.11 108.658 1566.81 113.848 1569.27 118.787C1580.77 118.871 1584.88 117.323 1587.58 114.141C1589.57 111.881 1596.38 110.165 1601.66 107.863C1604.48 111.756 1606.82 114.937 1609.52 118.62C1627.48 115.355 1636.98 111.044 1638.51 104.598C1643.08 109.119 1647.66 113.681 1652.47 118.411C1653.53 116.737 1654.47 115.313 1655.52 113.807C1658.69 114.518 1660.8 114.937 1661.62 115.146C1668.08 112.258 1673.94 109.579 1681.69 106.105C1685.21 110.416 1687.91 113.848 1691.31 118.034C1696 115.69 1699.88 113.681 1703.87 111.756C1711.02 108.407 1721.59 108.658 1726.63 112.342C1728.74 113.848 1730.15 115.481 1731.33 116.569C1736.14 113.89 1740.83 111.337 1745.52 108.742C1752.56 109.077 1759.61 109.412 1767.7 109.788C1768.29 110.542 1769.34 111.798 1770.64 113.346C1774.27 111.379 1777.56 109.579 1782.02 107.11C1790.82 112.886 1802.44 110.04 1813.23 109.412C1818.16 109.119 1823.67 106.9 1827.2 110.249C1827.66 110.709 1832.48 110.96 1834.82 110.709C1843.51 109.788 1851.84 108.575 1861.34 107.361C1863.1 108.575 1864.75 109.705 1866.39 110.835C1881.64 110.333 1895.37 104.849 1912.15 109.077C1913.44 109.412 1916.14 109.537 1917.55 109.286C1935.27 106.105 1955.1 107.612 1972.94 107.57C2013.65 107.528 2054.26 104.515 2094.97 107.026C2096.73 107.152 2098.73 106.984 2100.61 106.9C2118.91 106.398 2137.22 105.938 2155.52 105.435C2166.08 105.142 2176.65 104.808 2187.21 104.515C2202.23 104.64 2217.13 104.891 2232.15 104.849C2292.82 104.808 2353.36 104.682 2414.03 104.473C2419.55 104.473 2425.06 103.803 2430.69 103.468C2437.85 103.845 2444.78 104.263 2452.17 104.64C2452.17 103.719 2452.17 102.798 2452.17 101.92C2446.18 101.041 2439.61 100.287 2432.81 100.245Z"/>
</svg>
