<svg width="384" height="124" viewBox="0 0 384 124" fill="none" xmlns="http://www.w3.org/2000/svg">
<rect width="384" height="124" fill="#503AE7"/>
<path d="M39.0475 41.4644H32V81.7143H39.0475V41.4644Z" fill="#1AD993"/>
<path d="M65.4207 35.7144H57.4922V88.2857H65.4207V35.7144Z" fill="#1AD993"/>
<path d="M90.9125 34.8929H83.865V88.2857H90.9125V34.8929Z" fill="#F4F2FF"/>
<path d="M117.286 32.4287H109.357V91.5714H117.286V32.4287Z" fill="#1AD993"/>
<path d="M143.659 16H135.73V108H143.659V16Z" fill="#1AD993"/>
<path d="M169.151 32.4287H162.103V91.5714H169.151V32.4287Z" fill="#F4F2FF"/>
<path d="M221.897 41.4644H213.968V81.7143H221.897V41.4644Z" fill="#1AD993"/>
<path d="M195.524 41.4644H187.595V81.7143H195.524V41.4644Z" fill="#1AD993"/>
<path d="M247.389 35.7144H240.341V88.2857H247.389V35.7144Z" fill="#1AD993"/>
<path d="M273.762 32.4287H265.833V91.5714H273.762V32.4287Z" fill="#F4F2FF"/>
<path d="M300.135 41.4644H292.207V81.7143H300.135V41.4644Z" fill="#1AD993"/>
<path d="M325.627 35.7144H318.58V88.2857H325.627V35.7144Z" fill="#1AD993"/>
<path d="M352 49.6785H344.071V74.3214H352V49.6785Z" fill="#1AD993"/>
</svg>
